<svg width="24" height="24" viewBox="0 0 24 24" fill="none" xmlns="http://www.w3.org/2000/svg">
<g clip-path="url(#clip0_66_7775)">
<path d="M12 24C18.6274 24 24 18.6274 24 12C24 5.37258 18.6274 0 12 0C5.37258 0 0 5.37258 0 12C0 18.6274 5.37258 24 12 24Z" fill="#0052CC"/>
<path d="M6.38906 6.60696C6.17813 6.60461 6.00234 6.77336 6 6.98665C6 7.01008 6 7.03118 6.00469 7.05461L7.63594 16.9593C7.67812 17.2077 7.89375 17.3929 8.14688 17.3952H15.975C16.1648 17.3976 16.3289 17.2593 16.3594 17.0718L17.9953 7.05461C18.0305 6.84602 17.8875 6.64915 17.6789 6.61399C17.6555 6.6093 17.6344 6.6093 17.6133 6.6093L6.38906 6.60696ZM13.2609 13.7648H10.7602L10.0852 10.2327H13.8656L13.2609 13.7648Z" fill="white"/>
</g>
<defs>
<clipPath id="clip0_66_7775">
<rect width="24" height="24" fill="white"/>
</clipPath>
</defs>
</svg>
