<svg width="16" height="16" viewBox="0 0 16 16" fill="none" xmlns="http://www.w3.org/2000/svg">
<path fill-rule="evenodd" clip-rule="evenodd" d="M8 16C12.4185 16 16 12.4185 16 8C16 3.58154 12.4185 0 8 0C3.58154 0 0 3.58154 0 8C0 12.4185 3.58154 16 8 16ZM8.81299 5.58252C8.93066 5.41846 9 5.21729 9 5C9 4.44775 8.55225 4 8 4C7.44775 4 7 4.44775 7 5C7 5.21484 7.06787 5.41406 7.18311 5.57715C7.36426 5.83301 7.6626 6 8 6C8.33496 6 8.63135 5.83545 8.81299 5.58252ZM9 8C9 8.55225 8.55225 9 8 9C7.44775 9 7 8.55225 7 8C7 7.6958 7.13574 7.42334 7.3501 7.23975C7.5249 7.09033 7.75195 7 8 7C8.17969 7 8.34814 7.04736 8.49365 7.12988C8.55029 7.16211 8.60352 7.19971 8.65283 7.24219C8.86523 7.42578 9 7.69727 9 8ZM8 12C8.55225 12 9 11.5522 9 11C9 10.6895 8.8584 10.4116 8.63623 10.228C8.46338 10.0854 8.2417 10 8 10C7.44775 10 7 10.4478 7 11C7 11.3657 7.19678 11.686 7.48975 11.8604C7.63916 11.9492 7.81348 12 8 12Z" fill="#FFFEF7"/>
</svg>
