<svg width="24" height="24" viewBox="0 0 24 24" fill="none" xmlns="http://www.w3.org/2000/svg">
<path d="M8.28597 12.6012C8.28597 13.4765 8.91583 14.1881 9.68474 14.1881C10.47 14.1881 11.0835 13.4683 11.0835 12.6012C11.0917 11.726 10.47 11.0143 9.68474 11.0143C8.89947 11.0143 8.28597 11.726 8.28597 12.6012Z" fill="#FFFEF7"/>
<path d="M13.4475 12.6012C13.4475 13.4765 14.0774 14.1881 14.8463 14.1881C15.6315 14.1881 16.245 13.4683 16.245 12.6012C16.2532 11.726 15.6315 11.0143 14.8463 11.0143C14.061 11.0143 13.4475 11.726 13.4475 12.6012Z" fill="#FFFEF7"/>
<path fill-rule="evenodd" clip-rule="evenodd" d="M12 24C18.6274 24 24 18.6274 24 12C24 5.37258 18.6274 0 12 0C5.37258 0 0 5.37258 0 12C0 18.6274 5.37258 24 12 24ZM14.4536 6C15.5825 6.19632 16.654 6.53988 17.6602 7.00613H17.6765C19.4352 9.62371 20.3023 12.5767 19.9833 15.9877C18.6418 16.9939 17.333 17.5992 16.0487 18C15.7297 17.5665 15.4516 17.1002 15.2062 16.6176C15.6643 16.4376 16.1142 16.225 16.5313 15.9714C16.4168 15.8896 16.3105 15.8078 16.2041 15.7178C13.6765 16.9121 10.9035 16.9121 8.34323 15.7178C8.30521 15.747 8.26719 15.7773 8.22879 15.8079C8.1598 15.8629 8.0896 15.9188 8.01603 15.9714C8.43321 16.225 8.87493 16.4458 9.34118 16.6176C9.09578 17.1002 8.81767 17.5665 8.49865 18C7.2144 17.5992 5.91379 16.9939 4.5641 15.9877C4.29416 13.0511 4.84222 10.0654 6.87084 7.00613C7.87697 6.53988 8.94855 6.19632 10.0774 6C10.2164 6.2454 10.38 6.58078 10.4946 6.85071C11.6643 6.67076 12.8504 6.67076 14.0446 6.85071C14.151 6.58078 14.3146 6.2454 14.4536 6Z" fill="#FFFEF7"/>
</svg>
