<svg width="24" height="24" viewBox="0 0 24 24" fill="none" xmlns="http://www.w3.org/2000/svg">
<path d="M16.782 8.93637C16.7281 8.89644 16.6627 8.87492 16.5956 8.875H7.40437C7.33727 8.87492 7.27193 8.89644 7.21801 8.93637C7.16408 8.97631 7.12445 9.03254 7.10496 9.09675C7.08547 9.16095 7.08717 9.22973 7.1098 9.2929C7.13243 9.35607 7.1748 9.41027 7.23062 9.4475L11.6525 12.405C11.7553 12.4738 11.8763 12.5105 12 12.5105C12.1237 12.5105 12.2447 12.4738 12.3475 12.405L16.7694 9.4475C16.8252 9.41027 16.8676 9.35607 16.8902 9.2929C16.9128 9.22973 16.9145 9.16095 16.895 9.09675C16.8756 9.03254 16.8359 8.97631 16.782 8.93637Z" fill="#FFFEF7"/>
<path fill-rule="evenodd" clip-rule="evenodd" d="M12 24C18.6274 24 24 18.6274 24 12C24 5.37258 18.6274 0 12 0C5.37258 0 0 5.37258 0 12C0 18.6274 5.37258 24 12 24ZM5.75 10.125C5.75 9.25 5.75 8.8125 5.92 8.47812C6.06983 8.18397 6.30897 7.94483 6.60313 7.795C6.9375 7.625 7.375 7.625 8.25 7.625H15.75C16.625 7.625 17.0625 7.625 17.3969 7.795C17.6908 7.94493 17.9297 8.18407 18.0794 8.47812C18.25 8.8125 18.25 9.25 18.25 10.125V13.875C18.25 14.75 18.25 15.1875 18.0794 15.5219C17.9296 15.8157 17.6907 16.0546 17.3969 16.2044C17.0625 16.375 16.625 16.375 15.75 16.375H8.25C7.375 16.375 6.9375 16.375 6.60313 16.2044C6.30907 16.0547 6.06993 15.8158 5.92 15.5219C5.75 15.1875 5.75 14.75 5.75 13.875V10.125Z" fill="#FFFEF7"/>
</svg>
