<svg width="16" height="16" viewBox="0 0 16 16" fill="none" xmlns="http://www.w3.org/2000/svg">
<path fill-rule="evenodd" clip-rule="evenodd" d="M8.00977 16C12.4282 16 16.0098 12.4185 16.0098 8C16.0098 3.58154 12.4282 0 8.00977 0C3.59131 0 0.00976562 3.58154 0.00976562 8C0.00976562 12.4185 3.59131 16 8.00977 16ZM9.85107 4C10.4062 3.99121 10.9644 4.19824 11.3877 4.62207C12.2173 5.45117 12.2173 6.79541 11.3877 7.62451L11.0127 8C10.8052 8.20703 10.4692 8.20703 10.2617 8C10.0547 7.79248 10.0547 7.45654 10.2617 7.24951L10.6372 6.87402C10.835 6.67627 10.9385 6.41992 10.9478 6.16064C10.9575 5.87646 10.854 5.58936 10.6372 5.37256C10.2227 4.95801 9.55029 4.95801 9.13574 5.37256L7.63428 6.87402C7.21973 7.28857 7.21973 7.96094 7.63428 8.37549C7.8418 8.58252 7.8418 8.91895 7.63428 9.12598C7.42725 9.3335 7.09082 9.3335 6.88379 9.12598C6.05469 8.29688 6.05469 6.95264 6.88379 6.12305L8.38525 4.62207C8.79102 4.21631 9.31982 4.00879 9.85107 4ZM8.38525 7.62451C8.17773 7.41748 8.17773 7.08105 8.38525 6.87402C8.59229 6.6665 8.92871 6.6665 9.13574 6.87402C9.96484 7.70312 9.96484 9.04736 9.13574 9.87695L7.63428 11.3779C6.80518 12.2075 5.46094 12.2075 4.63184 11.3779C3.80225 10.5488 3.80225 9.20459 4.63184 8.37549L5.00684 8C5.21436 7.79248 5.55029 7.79248 5.75781 8C5.96484 8.20703 5.96484 8.54346 5.75781 8.75049L5.38232 9.12598C5.16309 9.34521 5.05957 9.63721 5.07227 9.9248C5.08398 10.1802 5.18701 10.4321 5.38232 10.6274C5.79688 11.042 6.46924 11.042 6.88379 10.6274L8.38525 9.12598C8.7998 8.71143 8.7998 8.03906 8.38525 7.62451Z" fill="#FFFEF7"/>
</svg>
