<svg width="24" height="24" viewBox="0 0 24 24" fill="none" xmlns="http://www.w3.org/2000/svg">
<path fill-rule="evenodd" clip-rule="evenodd" d="M12 24C18.6277 24 24 18.6277 24 12C24 5.37231 18.6277 0 12 0C5.37231 0 0 5.37231 0 12C0 18.6277 5.37231 24 12 24ZM14.762 6C15.5947 5.98682 16.4319 6.29736 17.0669 6.93311C18.3113 8.17676 18.3113 10.1931 17.0669 11.4368L16.5044 12C16.1931 12.3105 15.6892 12.3105 15.3779 12C15.0674 11.6887 15.0674 11.1848 15.3779 10.8743L15.9412 10.311C16.2378 10.0144 16.3931 9.62988 16.407 9.24097C16.4216 8.8147 16.2664 8.38403 15.9412 8.05884C15.3193 7.43701 14.3108 7.43701 13.689 8.05884L11.4368 10.311C10.8149 10.9329 10.8149 11.9414 11.4368 12.5632C11.748 12.8738 11.748 13.3784 11.4368 13.689C11.1262 14.0002 10.6216 14.0002 10.311 13.689C9.06738 12.4453 9.06738 10.429 10.311 9.18457L12.5632 6.93311C13.1719 6.32446 13.9651 6.01318 14.762 6ZM12.5632 11.4368C12.252 11.1262 12.252 10.6216 12.5632 10.311C12.8738 9.99976 13.3784 9.99976 13.689 10.311C14.9326 11.5547 14.9326 13.571 13.689 14.8154L11.4368 17.0669C10.1931 18.3113 8.17676 18.3113 6.93311 17.0669C5.68872 15.8232 5.68872 13.8069 6.93311 12.5632L7.49561 12C7.80688 11.6887 8.31079 11.6887 8.62207 12C8.93262 12.3105 8.93262 12.8152 8.62207 13.1257L8.05884 13.689C7.72998 14.0178 7.57471 14.4558 7.59375 14.8872C7.61133 15.2703 7.76587 15.6482 8.05884 15.9412C8.68066 16.563 9.68921 16.563 10.311 15.9412L12.5632 13.689C13.1851 13.0671 13.1851 12.0586 12.5632 11.4368Z" fill="#FFFEF7"/>
</svg>
