<svg width="24" height="24" viewBox="0 0 24 24" fill="none" xmlns="http://www.w3.org/2000/svg">
<path d="M9.67383 12C9.67383 13.284 10.7184 14.328 12.003 14.328C13.2876 14.328 14.3322 13.284 14.3322 12C14.3322 10.716 13.2876 9.672 12.003 9.672C10.7184 9.672 9.67383 10.716 9.67383 12Z" fill="#FFFEF7"/>
<path d="M15.4307 9.126C15.4847 9.066 15.5267 9 15.5568 8.928C15.5868 8.856 15.6048 8.778 15.6048 8.7C15.6048 8.622 15.5868 8.544 15.5568 8.472C15.5267 8.394 15.4847 8.334 15.4307 8.274C15.4207 8.266 15.4107 8.25733 15.4007 8.24867C15.3807 8.23133 15.3607 8.214 15.3407 8.202C15.3046 8.178 15.2686 8.16 15.2326 8.148C15.1966 8.13 15.1606 8.118 15.1185 8.112C14.9264 8.07 14.7163 8.136 14.5783 8.274C14.5242 8.334 14.4822 8.394 14.4522 8.472C14.4222 8.544 14.4042 8.622 14.4042 8.7C14.4042 8.778 14.4222 8.856 14.4522 8.928C14.4822 9 14.5242 9.066 14.5783 9.126C14.6923 9.24 14.8424 9.3 15.0045 9.3C15.0825 9.3 15.1606 9.282 15.2326 9.252C15.3046 9.222 15.3707 9.18 15.4307 9.126Z" fill="#FFFEF7"/>
<path fill-rule="evenodd" clip-rule="evenodd" d="M12 24C18.6274 24 24 18.6274 24 12C24 5.37258 18.6274 0 12 0C5.37258 0 0 5.37258 0 12C0 18.6274 5.37258 24 12 24ZM9.48774 6H14.5182C16.7033 6 18.006 7.302 18 9.486V14.514C18 16.698 16.6973 18 14.5122 18H9.48774C7.30265 18 6 16.698 6 14.508V9.486C6 7.302 7.30265 6 9.48774 6Z" fill="#FFFEF7"/>
</svg>
