<svg width="134" height="61" viewBox="0 0 134 61" fill="none" xmlns="http://www.w3.org/2000/svg">
<path d="M90.1414 40.4141C90.4477 40.2618 90.7656 40.1683 91.0777 40.0454C91.1715 40.2104 91.2652 40.3753 91.306 40.5813C91.3395 41.3698 91.3495 42.1935 91.4361 42.9409C91.4348 43.5528 91.4865 44.1236 91.6559 44.6711C91.6589 43.2944 91.6383 41.9529 91.5886 40.4643C92.0462 41.0772 92.1154 41.7363 92.1903 42.4248C92.242 42.9956 92.3526 43.5548 92.3451 44.2902C92.6281 44.0202 92.7814 43.8676 92.8995 43.6913C93.5072 42.8984 93.0233 43.5445 93.7135 42.7047C93.8022 42.5342 93.8966 42.3932 94.155 42.6174C94.0369 42.7936 93.9011 43.0346 93.8241 43.2638C93.1455 44.1625 93.6352 43.5458 92.9625 44.474C92.5022 45.0848 92.3715 45.6611 92.3876 46.3613C92.3535 48.5087 92.1195 50.5733 91.6207 52.6903C91.2878 54.2545 90.7961 55.7891 90.0457 57.2524C89.7032 57.84 89.2843 58.351 88.8713 58.8913C88.5821 59.2849 88.0757 59.5074 87.6633 59.7418C86.8269 60.1518 85.9923 59.797 85.6117 58.9548C85.278 58.1951 85.1151 57.3711 85.4052 56.5186C85.7433 55.2897 86.1929 54.161 86.7896 53.0033C86.8783 52.8329 86.9549 52.7565 87.0966 52.545C88.077 50.8527 88.6909 49.9363 89.5405 48.8203C89.6942 48.5146 89.7951 48.0971 89.7783 47.7029C89.8402 46.3145 89.8726 44.932 89.8873 43.6141C89.853 43.1316 89.854 42.6727 89.8725 42.3021C89.868 41.6608 90.0282 41.0786 90.1414 40.4141ZM86.833 57.3983C87.3456 57.0523 87.5643 56.6116 87.8007 56.1061C88.2267 55.0127 88.5706 53.8132 89.0086 52.6257C89.016 51.8903 89.7073 50.5916 89.5738 49.7617C89.3199 50.1789 88.7001 51.0659 88.5407 51.3421C88.18 52.1473 87.8902 52.8468 87.5532 53.6168C87.2514 54.4104 87.032 55.1572 86.7891 55.9391C86.6707 56.2684 86.6875 56.6626 86.616 57.0743C86.6393 57.192 86.7098 57.2392 86.833 57.3983ZM89.9599 37.3307C89.7022 36.8006 90.0091 36.3424 90.1867 35.8486C90.2165 35.6898 90.4461 35.6138 90.5696 35.6199C90.9224 35.7031 91.2691 35.9098 91.5689 36.034C91.8803 36.217 91.9443 36.5408 91.8848 36.8584C91.8366 37.3878 91.1173 38.0804 90.5465 38.1321C90.3699 38.1671 90.1642 38.0548 90.0704 37.8899C90.0297 37.6839 89.9948 37.5073 89.9599 37.3307ZM98.5558 41.3803C97.7944 42.4788 97.4215 43.5311 96.6721 44.5356C96.2234 45.2053 95.4702 45.2625 94.7057 45.1079C94.1411 45.036 93.7653 44.6822 93.6664 44.1819C93.614 43.917 93.5558 43.6227 93.6212 43.3346C93.6129 41.746 93.9927 40.2642 94.5196 38.7533C94.8033 38.1773 95.0986 37.6602 96.0225 37.5387C96.1163 37.7036 96.3925 37.8631 96.5568 38.0753C96.1883 39.7689 95.814 41.4331 95.428 43.0385C95.451 43.3091 95.3976 43.5032 95.4678 43.7034C95.4791 43.9152 95.5612 44.0213 95.5903 44.1684C96.0608 44.2283 96.2378 44.0404 96.4619 43.782C97.3294 42.6014 97.9617 41.3143 98.6998 40.098C98.9062 39.9043 98.9479 39.6514 99.0721 39.3516C99.3322 38.8109 99.3322 38.8109 100.121 38.4714C100.351 38.5484 100.362 38.7602 100.338 38.9484C100.278 39.419 100.224 39.9189 100.164 40.3895C100.062 41.2659 100.308 42.0431 100.206 42.9195C100.442 45.3499 102.197 41.853 102.722 41.26C102.94 40.9721 103.257 41.3376 103.003 41.7548C102.312 42.9006 101.621 43.8934 100.896 44.8625C100.748 45.0446 100.56 45.1736 100.248 45.1435C99.3773 45.071 98.737 44.6166 98.6035 43.7867C98.5518 43.2159 98.5884 42.6276 98.5483 42.1157C98.5254 41.845 98.549 41.8098 98.5558 41.3803ZM95.0263 43.7907C95.2155 43.3557 95.1105 42.9789 94.9643 42.5491C94.7751 42.9841 94.733 43.3899 95.0263 43.7907ZM106.441 41.9924C106.772 41.3459 106.908 40.952 107.386 40.2765C107.551 40.1827 107.87 39.9363 108.111 39.9192C107.438 40.6943 107.869 40.0892 107.833 40.5245C107.856 40.6423 107.094 42.1997 106.999 42.3407C106.408 43.6809 106.307 44.0984 105.545 45.3499C105.244 45.8376 104.908 46.1486 104.267 46.3061C103.855 46.3876 103.596 46.3164 103.467 45.9749C103.361 45.904 103.297 45.7333 103.356 45.5687C103.251 45.1919 103.087 44.8268 102.599 44.8316C102.277 43.9778 102.261 43.1246 102.263 42.3598C102.26 41.1066 102.375 39.8301 102.613 38.5598C102.678 38.1187 102.815 37.7248 103.292 37.3552C103.368 37.4318 103.539 37.5204 103.668 37.556C103.827 37.5858 103.962 37.4978 104.11 37.4687C104.691 37.7818 104.791 38.1292 104.778 38.6822C104.545 39.9819 104.416 42.7293 104.289 44.0998C104.212 44.3291 104.056 43.2286 104.099 42.3638C103.809 43.2163 103.713 44.1221 104.229 44.8763C104.851 45.2425 106.075 42.6152 106.441 41.9924ZM103.603 45.8869C103.762 45.9167 103.803 45.9697 103.891 45.9523C103.997 45.8701 104.009 45.776 104.056 45.7055C103.938 45.7288 103.839 45.6874 103.75 45.7048C103.691 45.7165 103.644 45.787 103.603 45.8869ZM104.076 36.6803C103.176 36.4606 103.078 35.8073 102.991 35.2129C102.891 34.8656 102.998 34.4775 103.123 34.0247C103.329 33.984 103.588 33.9022 103.782 33.8026C104.465 33.5452 105.171 33.7115 105.346 34.2885C105.645 34.8716 105.673 35.4777 105.178 36.0649C105.083 36.2059 104.959 36.3527 104.694 36.4051C104.488 36.4458 104.306 36.6043 104.076 36.6803ZM110.983 36.018C110.659 36.082 110.394 36.1344 110.17 36.2398C109.49 37.7504 109.222 39.1795 109.095 40.856C109.124 41.1561 109.029 41.4501 109.087 41.7444C109.146 42.0387 109.363 42.2098 109.687 42.1458C110.187 42.0469 110.453 41.5356 110.812 41.1892C111.65 40.3203 111.243 40.7372 112.116 39.8918C112.393 39.5924 112.635 39.2693 112.923 39.0287C113.03 38.9466 113.136 38.8645 113.353 38.8826C113.318 39.0119 113.241 39.0883 113.135 39.1704C112.297 40.1923 112.439 40.1338 111.613 41.2145C111.147 41.796 110.669 42.3186 110.068 42.682C110.126 42.9763 111.647 41.697 111.664 41.7853C110.573 43.2244 109.194 44.1392 108.488 44.1259C107.612 44.024 107.03 43.4049 107.115 42.5932C107.259 41.3109 107.209 39.9752 107.541 38.7169C107.725 37.7936 108.004 36.8823 108.588 36.1246C108.895 35.6663 109.213 35.4199 109.625 35.1855C109.89 35.1331 110.108 35.1512 110.331 35.1988C110.608 35.2053 110.743 35.4233 110.707 35.7056C110.724 35.7939 110.901 35.9119 110.983 36.018ZM107.282 38.4928C107.239 39.3575 107.094 41.4047 106.998 42.3105C106.758 41.4098 107.022 39.3394 107.282 38.4928ZM118.747 37.4798C118.77 37.5976 118.752 37.6622 118.705 37.7327C118.669 37.8621 118.533 38.103 118.504 38.2618C117.683 39.6779 117.878 39.1194 117.016 40.4825C116.567 41.3052 115.989 41.9394 115.141 42.2905C114.788 42.5133 114.364 42.6889 113.923 42.4702C113.071 42.0271 112.595 41.4789 112.569 40.261C112.578 38.7607 112.905 37.32 113.502 36.0092C114.052 34.769 114.311 34.5343 115.665 34.2666C115.782 34.2433 115.947 34.3025 116.018 34.1967C116.359 34.0681 116.683 34.157 116.959 34.4694C117.229 34.7524 117.416 35.0823 117.38 35.5176C117.308 35.9293 117.166 36.2938 117.06 36.6819C116.687 37.5812 116.074 38.3447 115.419 39.0552C115.101 39.3016 114.865 39.6541 114.958 40.125C114.998 40.331 115.145 40.4549 115.215 40.6551C115.645 40.5089 116.294 39.769 116.506 39.4518C117.232 38.4826 115.567 41.1971 116.375 40.181C116.641 39.8227 118.004 38.0548 118.316 37.7789C118.405 37.6085 118.523 37.5852 118.747 37.4798ZM114.932 38.2952C115.656 38.2438 116.472 36.3393 116.316 35.0858C116.01 35.0851 115.698 35.361 115.591 35.5961C115.331 36.1368 114.875 37.6949 114.932 38.2952ZM116.569 35.1275C116.468 35.5451 116.35 35.8743 116.59 36.1631C116.968 35.5991 116.968 35.5991 116.569 35.1275ZM114.101 39.0406C114.131 38.7288 114.326 38.4762 114.021 38.1696C113.902 38.4988 113.89 38.7459 114.101 39.0406ZM116.893 34.9106C116.894 34.6046 116.741 34.4513 116.429 34.4212C116.429 34.4212 116.37 34.4329 116.329 34.5328C116.381 34.7977 116.522 34.8921 116.893 34.9106ZM127.633 41.2273C127.573 41.5449 127.42 41.8505 127.36 42.1681C127.159 42.8501 126.64 43.1667 126.116 43.4538C125.81 43.6061 125.504 43.4525 125.305 43.2167C124.982 42.9748 124.688 42.5741 124.572 42.1384C123.81 40.4541 123.626 38.7475 123.636 36.9413C123.625 36.5765 123.578 36.341 123.638 35.8705C123.396 36.0406 123.296 36.1521 123.249 36.2226C122.576 37.4567 121.914 38.5966 121.305 39.8485C121.176 39.9659 121.075 40.0774 121.146 40.1247C121.356 40.8782 120.779 41.2064 120.495 41.6294C120.247 42.076 119.665 42.0689 119.195 41.7031C118.355 41.0128 118.033 40.159 118.236 39.171C118.302 38.577 118.473 38.0537 118.669 37.4952C119.248 36.0962 120.181 34.9333 121.283 33.859C122.008 33.1958 122.567 33.0852 123.632 33.2111C123.921 32.9705 123.845 32.5879 123.852 32.3114C124.044 30.6527 124.3 29.0118 124.698 27.4653C125.113 26.16 125.574 24.9373 126 23.6909C126.066 23.4028 126.196 23.1324 126.637 23.0451C126.814 23.0102 127.015 22.6341 127.233 22.3463C127.333 22.3877 127.492 22.4175 127.668 22.3825C127.68 22.4414 127.78 22.4828 127.792 22.5417C127.803 22.6005 127.744 22.7651 127.756 22.824C128.084 23.4013 127.8 23.9773 127.675 24.583C126.754 28.8936 126.244 33.2757 126.135 37.6704C126.068 38.7234 126.1 39.8178 126.133 40.9122C126.121 41.1593 126.191 41.5124 126.173 41.7301C126.496 41.8191 126.508 41.572 126.556 41.5015C126.84 40.7725 127.071 40.0847 127.331 39.391C127.804 38.2271 128.377 37.1046 129.156 36.0944C129.404 35.8007 129.675 35.4718 130.029 35.249C129.342 37.0361 128.28 38.6223 127.788 40.4628C127.299 40.6206 127.316 41.0148 127.285 41.4795C127.45 41.3858 127.527 41.3095 127.633 41.2273ZM123.665 34.3055C123.653 34.2467 123.595 34.2583 123.524 34.2111C123.389 34.299 123.182 34.3398 123.088 34.4808C122.368 35.3264 121.614 36.1484 121.064 37.0827C120.846 37.5235 120.668 38.0173 120.579 38.4937C120.513 38.7818 120.366 39.1169 120.6 39.5292C121.219 39.1011 121.561 38.5135 121.874 37.9317C122.554 36.7271 123.385 35.6758 123.665 34.3055ZM124.916 40.633C124.922 40.5095 124.899 40.3918 124.929 40.233C124.895 39.5975 124.832 38.9678 124.821 38.2971C124.802 36.4967 124.841 34.6846 124.998 32.8493C124.98 32.761 124.94 32.555 124.916 32.4373C124.644 33.0721 124.649 33.7134 124.565 34.3722C124.366 36.4604 124.191 38.8193 124.916 40.633ZM119.814 40.969C119.814 41.1219 119.737 41.1983 119.749 41.2571C119.69 41.2688 119.778 41.4043 119.866 41.3868C119.896 41.381 119.937 41.2811 119.984 41.2106C119.973 41.1517 119.902 41.1045 119.814 40.969Z" fill="#FCE025"/>
<path d="M13.846 13.0456L13.8461 13.0458V13.0453C14.3738 11.0503 15.4058 9.15113 16.7757 7.46377C15.8727 3.14839 13.8634 0.0269874 13.8461 0.000132669V-4.19617e-05L13.846 4.53181e-05L13.846 -4.19617e-05V0.000132669C13.8287 0.0269874 11.8194 3.14839 10.9164 7.46377C12.2863 9.15113 13.3183 11.0503 13.846 13.0453V13.0458L13.846 13.0456Z" fill="#FFFEF7"/>
<path d="M3.13542 25.8987C2.76151 27.5842 2.54463 29.0333 2.3675 30.7127C4.1912 30.3726 7.09089 29.48 9.74999 26.5344C12.4091 23.5888 13.1865 19.8119 13.1865 17.8393C13.1865 15.8667 13.0878 11.8814 9.49029 8.05211C6.97715 5.37706 4.11829 4.51053 2.58806 4.18668C5.40875 6.49719 7.03701 9.11038 7.83977 12.6224C5.319 10.8169 2.08234 10.6515 0.0195312 11.3072C1.78792 12.154 3.12275 13.0988 4.48205 14.5597C5.60437 15.8058 6.57927 17.1647 7.37215 19.296C5.60893 19.882 4.58766 21.0849 4.10846 22.4821C3.62926 23.8793 3.13542 25.8987 3.13542 25.8987Z" fill="#FFFEF7"/>
<path d="M13.1598 43.9937C13.038 40.5331 11.5659 37.6049 9.47517 35.4871C7.63448 33.6227 5.02713 32.3258 2.26776 31.9653C2.15567 33.826 2.19972 35.2873 2.32005 37.0972C2.44038 38.9071 2.95259 40.1958 4.09605 41.4794C5.26386 42.7654 6.50303 43.1686 7.34599 43.3956C8.18895 43.6226 11.7562 44.0569 13.1598 43.9937Z" fill="#FFFEF7"/>
<path d="M24.5567 25.8987C24.9306 27.5842 25.1475 29.0333 25.3246 30.7127C23.5009 30.3726 20.6012 29.48 17.9421 26.5344C15.283 23.5888 14.5056 19.8119 14.5056 17.8393C14.5056 15.8667 14.6043 11.8814 18.2018 8.05211C20.7149 5.37706 23.5738 4.51053 25.104 4.18668C22.2833 6.49719 20.6551 9.11038 19.8523 12.6224C22.3731 10.8169 25.6098 10.6515 27.6726 11.3072C25.9042 12.154 24.5693 13.0988 23.21 14.5597C22.0877 15.8058 21.1128 17.1647 20.32 19.296C22.0832 19.882 23.1044 21.0849 23.5836 22.4821C24.0628 23.8793 24.5567 25.8987 24.5567 25.8987Z" fill="#FFFEF7"/>
<path d="M14.5323 43.9937C14.6541 40.5331 16.1262 37.6049 18.2169 35.4871C20.0576 33.6227 22.665 32.3258 25.4243 31.9653C25.5364 33.826 25.4924 35.2873 25.372 37.0972C25.2517 38.9071 24.7395 40.1958 23.596 41.4794C22.4282 42.7654 21.1891 43.1686 20.3461 43.3956C19.5032 43.6226 15.9359 44.0569 14.5323 43.9937Z" fill="#FFFEF7"/>
<path d="M115.397 31.4892L115.372 31.4978C113.938 31.4978 112.779 31.0681 111.886 30.2088C110.993 29.3494 110.547 28.215 110.547 26.8056C110.547 25.4564 110.976 24.3306 111.835 23.4369C112.693 22.5431 113.818 22.0963 115.2 22.0963C116.617 22.0963 117.741 22.5259 118.565 23.3939C119.39 24.2619 119.802 25.3533 119.802 26.6681C119.802 27.0291 119.785 27.3041 119.75 27.4931H112.839C112.916 28.1033 113.174 28.5931 113.612 28.9627C114.05 29.3322 114.651 29.5127 115.423 29.5127C116.453 29.5127 117.175 29.1173 117.587 28.3353L119.681 28.9541C119.39 29.6244 118.874 30.2173 118.128 30.7244C117.381 31.2314 116.471 31.4892 115.397 31.4892ZM112.822 26.0408H117.527C117.467 25.4822 117.226 25.0095 116.805 24.6314C116.385 24.2533 115.844 24.0642 115.174 24.0642C114.53 24.0642 113.998 24.2619 113.569 24.6486C113.14 25.0353 112.891 25.4994 112.822 26.0408Z" fill="#FFFEF7"/>
<path d="M106.504 31.24V18.3923H108.822V31.24H106.504Z" fill="#FFFEF7"/>
<path d="M100.374 22.0877H100.357C101.602 22.0877 102.641 22.5345 103.482 23.4283C104.324 24.322 104.744 25.4392 104.744 26.7884C104.744 28.1205 104.324 29.2377 103.482 30.14C102.641 31.0424 101.602 31.4892 100.374 31.4892C99.164 31.4892 98.2024 31.0424 97.4899 30.1486V34.9353H95.1719V22.3369H97.4899V23.4111C98.1939 22.5259 99.1554 22.0877 100.374 22.0877ZM99.9538 29.4095V29.4267C100.684 29.4267 101.285 29.1775 101.757 28.6877C102.229 28.1978 102.461 27.5619 102.461 26.7884C102.461 26.0236 102.229 25.3963 101.757 24.9064C101.285 24.4166 100.684 24.1759 99.9538 24.1759C99.2412 24.1759 98.6403 24.4252 98.1509 24.915C97.6616 25.4048 97.4212 26.0236 97.4212 26.7713C97.4212 27.5361 97.6616 28.1634 98.1509 28.6619C98.6403 29.1603 99.2412 29.4095 99.9538 29.4095Z" fill="#FFFEF7"/>
<path d="M89.0385 22.0877H89.0214C90.2662 22.0877 91.305 22.5345 92.1464 23.4283C92.9877 24.322 93.4084 25.4392 93.4084 26.7884C93.4084 28.1205 92.9877 29.2377 92.1464 30.14C91.305 31.0424 90.2662 31.4892 89.0385 31.4892C87.828 31.4892 86.8665 31.0424 86.1539 30.1486V34.9353H83.8359V22.3369H86.1539V23.4111C86.8579 22.5259 87.8195 22.0877 89.0385 22.0877ZM88.6179 29.4095V29.4267C89.3476 29.4267 89.9486 29.1775 90.4208 28.6877C90.8929 28.1978 91.1247 27.5619 91.1247 26.7884C91.1247 26.0236 90.8929 25.3963 90.4208 24.9064C89.9486 24.4166 89.3476 24.1759 88.6179 24.1759C87.9053 24.1759 87.3043 24.4252 86.815 24.915C86.3256 25.4048 86.0853 26.0236 86.0853 26.7713C86.0853 27.5361 86.3256 28.1634 86.815 28.6619C87.3043 29.1603 87.9053 29.4095 88.6179 29.4095Z" fill="#FFFEF7"/>
<path d="M76.3604 31.4892L76.3519 31.4978C75.107 31.4978 74.0682 31.0509 73.2269 30.1486C72.3855 29.2463 71.9648 28.1291 71.9648 26.797C71.9648 25.4478 72.3855 24.322 73.2269 23.4283C74.0682 22.5345 75.1156 22.0877 76.3604 22.0877C77.5795 22.0877 78.5325 22.5259 79.2193 23.4111V22.3369H81.5631V31.24H79.2193V30.1486C78.5325 31.0423 77.5795 31.4892 76.3604 31.4892ZM76.7554 29.4181V29.4009C77.4679 29.4009 78.0689 29.1517 78.5582 28.6533C79.0476 28.1548 79.288 27.5275 79.288 26.7627C79.288 26.015 79.0476 25.3963 78.5582 24.9064C78.0689 24.4166 77.4679 24.1673 76.7554 24.1673C76.0256 24.1673 75.4247 24.408 74.9525 24.8978C74.4803 25.3877 74.2485 26.015 74.2485 26.7798C74.2485 27.5533 74.4803 28.1892 74.9525 28.6791C75.4247 29.1689 76.0256 29.4181 76.7554 29.4181Z" fill="#FFFEF7"/>
<path d="M66.3428 31.4892L66.3171 31.4978C64.8833 31.4978 63.7243 31.0681 62.8315 30.2088C61.9386 29.3494 61.4922 28.215 61.4922 26.8056C61.4922 25.4564 61.9214 24.3306 62.78 23.4369C63.6385 22.5431 64.7631 22.0963 66.1453 22.0963C67.5619 22.0963 68.6866 22.5259 69.5107 23.3939C70.3349 24.2619 70.747 25.3533 70.747 26.6681C70.747 27.0291 70.7298 27.3041 70.6955 27.4931H63.7844C63.8617 28.1033 64.1192 28.5931 64.5571 28.9627C64.9949 29.3322 65.5959 29.5127 66.3686 29.5127C67.3988 29.5127 68.1199 29.1173 68.532 28.3353L70.6268 28.9541C70.3349 29.6244 69.8198 30.2173 69.0729 30.7244C68.326 31.2314 67.416 31.4892 66.3428 31.4892ZM63.7673 26.0408H68.4719C68.4118 25.4822 68.1714 25.0095 67.7508 24.6314C67.3301 24.2533 66.7892 24.0642 66.1196 24.0642C65.4757 24.0642 64.9434 24.2619 64.5142 24.6486C64.0849 25.0353 63.8359 25.4994 63.7673 26.0408Z" fill="#FFFEF7"/>
<path d="M56.3487 22.0877V22.0962C57.4906 22.0962 58.3577 22.4486 58.9586 23.1533C59.5596 23.858 59.8601 24.8205 59.8601 26.0408V31.2486H57.5335V26.4791C57.5335 25.783 57.3704 25.2416 57.0527 24.8462C56.7351 24.4509 56.2629 24.2533 55.6362 24.2533C54.9923 24.2533 54.4772 24.4853 54.0822 24.958C53.6873 25.4306 53.4899 26.058 53.4899 26.84V31.24H51.1719V22.3369H53.4899V23.4627C54.2024 22.5431 55.1554 22.0877 56.3487 22.0877Z" fill="#FFFEF7"/>
<path d="M47.7025 21.0822V21.0994C47.3162 21.0994 46.99 20.9705 46.7238 20.7041C46.4577 20.4377 46.3203 20.1111 46.3203 19.7244C46.3203 19.3463 46.4577 19.0283 46.7238 18.7705C46.99 18.5127 47.3162 18.3838 47.7025 18.3838C48.0889 18.3838 48.4151 18.5127 48.6812 18.7705C48.9474 19.0283 49.0847 19.3463 49.0847 19.7244C49.0847 20.1111 48.9474 20.4377 48.6812 20.6955C48.4151 20.9533 48.0889 21.0822 47.7025 21.0822ZM46.5006 31.2572V22.3541H48.8358V31.2572H46.5006Z" fill="#FFFEF7"/>
<path d="M40.7575 18.9166L40.7403 18.9252C42.0195 18.9252 43.0498 19.3634 43.8396 20.24C44.6294 21.1166 45.0243 22.1048 45.0243 23.2048C45.0243 24.3306 44.6294 25.3275 43.8396 26.1869C43.0498 27.0463 41.9852 27.4759 40.6545 27.4759H37.3835V31.24H34.9883V18.9166H40.7575ZM40.5601 25.3361L40.5429 25.3189C41.1696 25.3189 41.6761 25.1041 42.071 24.683C42.466 24.2619 42.6634 23.772 42.6634 23.2134C42.6634 22.6548 42.4745 22.165 42.0968 21.7439C41.7191 21.3228 41.2469 21.108 40.6717 21.108H37.3664V25.3361H40.5601Z" fill="#FFFEF7"/>
</svg>
