<svg width="24" height="24" viewBox="0 0 24 24" fill="none" xmlns="http://www.w3.org/2000/svg">
<g filter="url(#filter0_b_230_20345)">
<path d="M8.22524 4.44744C9.25238 3.83917 9.97606 3.41161 10.5807 3.13069C11.1702 2.85676 11.5907 2.75 12 2.75C12.4093 2.75 12.8298 2.85676 13.4193 3.13069C14.0239 3.41161 14.7476 3.83917 15.7748 4.44744L16.4609 4.85379C17.4879 5.46197 18.2109 5.89115 18.7508 6.288C19.2767 6.67467 19.581 6.99746 19.7895 7.36788C19.9986 7.73929 20.1199 8.1739 20.1838 8.83855C20.2492 9.51885 20.25 10.378 20.25 11.5937V12.4063C20.25 13.622 20.2492 14.4812 20.1838 15.1614C20.1199 15.8261 19.9986 16.2607 19.7895 16.6321C19.581 17.0025 19.2767 17.3253 18.7508 17.712C18.2109 18.1089 17.4879 18.538 16.4609 19.1462L15.7748 19.5526C14.7476 20.1608 14.0239 20.5884 13.4193 20.8693C12.8298 21.1432 12.4093 21.25 12 21.25C11.5907 21.25 11.1702 21.1432 10.5807 20.8693C9.97606 20.5884 9.25238 20.1608 8.22524 19.5526L7.53909 19.1462C6.5121 18.538 5.78906 18.1089 5.24923 17.712C4.72326 17.3253 4.419 17.0025 4.2105 16.6321C4.00145 16.2607 3.88005 15.8261 3.81618 15.1614C3.7508 14.4812 3.75 13.622 3.75 12.4063V11.5937C3.75 10.378 3.7508 9.51884 3.81618 8.83855C3.88005 8.1739 4.00145 7.73929 4.2105 7.36788C4.419 6.99746 4.72326 6.67467 5.24923 6.288C5.78906 5.89115 6.5121 5.46197 7.53909 4.85379L8.22524 4.44744Z" stroke="#16171A" stroke-width="1.5"/>
</g>
<circle cx="12" cy="12" r="3" stroke="#16171A" stroke-width="1.5"/>
<defs>
<filter id="filter0_b_230_20345" x="-41" y="-42" width="106" height="108" filterUnits="userSpaceOnUse" color-interpolation-filters="sRGB">
<feFlood flood-opacity="0" result="BackgroundImageFix"/>
<feGaussianBlur in="BackgroundImageFix" stdDeviation="22"/>
<feComposite in2="SourceAlpha" operator="in" result="effect1_backgroundBlur_230_20345"/>
<feBlend mode="normal" in="SourceGraphic" in2="effect1_backgroundBlur_230_20345" result="shape"/>
</filter>
</defs>
</svg>
