<svg width="546" height="200" viewBox="0 0 546 200" fill="none" xmlns="http://www.w3.org/2000/svg">
<path d="M63.0005 59.2982L63.0008 59.2991V59.2972C65.4019 50.2287 70.0975 41.5962 76.3306 33.9264C72.222 14.311 63.0796 0.122861 63.0008 0.000793775V0L63.0005 0.000396726L63.0002 0V0.000793774C62.9214 0.122861 53.779 14.311 49.6705 33.9264C55.9035 41.5962 60.5991 50.2287 63.0002 59.2972V59.2991L63.0005 59.2982Z" fill="#111113"/>
<path d="M14.2671 117.722C12.5658 125.383 11.5791 131.97 10.7731 139.603C19.0709 138.057 32.2645 134 44.3634 120.611C56.4623 107.222 59.9995 90.0544 59.9995 81.088C59.9995 72.1216 59.5506 54.0066 43.1818 36.6007C31.747 24.4414 18.7392 20.5026 11.7767 19.0305C24.6108 29.5329 32.0194 41.411 35.6719 57.3747C24.2024 49.1681 9.47563 48.416 0.0898438 51.3965C8.13602 55.2457 14.2095 59.5402 20.3943 66.1807C25.5008 71.8449 29.9367 78.0218 33.5442 87.7094C25.5216 90.3729 20.8748 95.8405 18.6945 102.191C16.5141 108.542 14.2671 117.722 14.2671 117.722Z" fill="#111113"/>
<path d="M59.8781 199.972C59.3238 184.242 52.6259 170.931 43.113 161.305C34.7379 152.831 22.8744 146.936 10.3193 145.297C9.80927 153.755 10.0097 160.397 10.5572 168.624C11.1047 176.851 13.4353 182.709 18.638 188.543C23.9515 194.388 29.5898 196.221 33.4252 197.253C37.2607 198.285 53.4916 200.259 59.8781 199.972Z" fill="#111113"/>
<path d="M111.734 117.722C113.435 125.383 114.422 131.97 115.228 139.603C106.93 138.057 93.7365 134 81.6376 120.611C69.5387 107.222 66.0015 90.0544 66.0015 81.088C66.0015 72.1216 66.4504 54.0066 82.8192 36.6007C94.254 24.4414 107.262 20.5026 114.224 19.0305C101.39 29.5329 93.9816 41.411 90.3291 57.3747C101.799 49.1681 116.525 48.416 125.911 51.3965C117.865 55.2457 111.792 59.5402 105.607 66.1807C100.5 71.8449 96.0643 78.0218 92.4568 87.7094C100.479 90.3729 105.126 95.8405 107.307 102.191C109.487 108.542 111.734 117.722 111.734 117.722Z" fill="#111113"/>
<path d="M66.1229 199.972C66.6772 184.242 73.3751 170.931 82.888 161.305C91.2631 152.831 103.127 146.936 115.682 145.297C116.192 153.755 115.991 160.397 115.444 168.624C114.896 176.851 112.566 182.709 107.363 188.543C102.049 194.388 96.4112 196.221 92.5758 197.253C88.7403 198.285 72.5094 200.259 66.1229 199.972Z" fill="#111113"/>
<path d="M525.055 143.133L524.938 143.172C518.414 143.172 513.141 141.219 509.078 137.312C505.016 133.406 502.984 128.25 502.984 121.844C502.984 115.711 504.938 110.594 508.844 106.531C512.75 102.469 517.867 100.438 524.156 100.438C530.602 100.438 535.719 102.391 539.469 106.336C543.219 110.281 545.094 115.242 545.094 121.219C545.094 122.859 545.016 124.109 544.859 124.969H513.414C513.766 127.742 514.938 129.969 516.93 131.648C518.922 133.328 521.656 134.148 525.172 134.148C529.859 134.148 533.141 132.352 535.016 128.797L544.547 131.609C543.219 134.656 540.875 137.352 537.477 139.656C534.078 141.961 529.938 143.133 525.055 143.133ZM513.336 118.367H534.742C534.469 115.828 533.375 113.68 531.461 111.961C529.547 110.242 527.086 109.383 524.039 109.383C521.109 109.383 518.688 110.281 516.734 112.039C514.781 113.797 513.648 115.906 513.336 118.367Z" fill="#111113"/>
<path d="M484.586 142V83.6016H495.133V142H484.586Z" fill="#111113"/>
<path d="M456.695 100.398H456.617C462.281 100.398 467.008 102.43 470.836 106.492C474.664 110.555 476.578 115.633 476.578 121.766C476.578 127.82 474.664 132.898 470.836 137C467.008 141.102 462.281 143.133 456.695 143.133C451.188 143.133 446.812 141.102 443.57 137.039V158.797H433.023V101.531H443.57V106.414C446.773 102.391 451.148 100.398 456.695 100.398ZM454.781 133.68V133.758C458.102 133.758 460.836 132.625 462.984 130.398C465.133 128.172 466.188 125.281 466.188 121.766C466.188 118.289 465.133 115.438 462.984 113.211C460.836 110.984 458.102 109.891 454.781 109.891C451.539 109.891 448.805 111.023 446.578 113.25C444.352 115.477 443.258 118.289 443.258 121.688C443.258 125.164 444.352 128.016 446.578 130.281C448.805 132.547 451.539 133.68 454.781 133.68Z" fill="#111113"/>
<path d="M405.133 100.398H405.055C410.719 100.398 415.445 102.43 419.273 106.492C423.102 110.555 425.016 115.633 425.016 121.766C425.016 127.82 423.102 132.898 419.273 137C415.445 141.102 410.719 143.133 405.133 143.133C399.625 143.133 395.25 141.102 392.008 137.039V158.797H381.461V101.531H392.008V106.414C395.211 102.391 399.586 100.398 405.133 100.398ZM403.219 133.68V133.758C406.539 133.758 409.273 132.625 411.422 130.398C413.57 128.172 414.625 125.281 414.625 121.766C414.625 118.289 413.57 115.438 411.422 113.211C409.273 110.984 406.539 109.891 403.219 109.891C399.977 109.891 397.242 111.023 395.016 113.25C392.789 115.477 391.695 118.289 391.695 121.688C391.695 125.164 392.789 128.016 395.016 130.281C397.242 132.547 399.977 133.68 403.219 133.68Z" fill="#111113"/>
<path d="M347.438 143.133L347.398 143.172C341.734 143.172 337.008 141.141 333.18 137.039C329.352 132.938 327.438 127.859 327.438 121.805C327.438 115.672 329.352 110.555 333.18 106.492C337.008 102.43 341.773 100.398 347.438 100.398C352.984 100.398 357.32 102.391 360.445 106.414V101.531H371.109V142H360.445V137.039C357.32 141.102 352.984 143.133 347.438 143.133ZM349.234 133.719V133.641C352.477 133.641 355.211 132.508 357.438 130.242C359.664 127.977 360.758 125.125 360.758 121.648C360.758 118.25 359.664 115.438 357.438 113.211C355.211 110.984 352.477 109.852 349.234 109.852C345.914 109.852 343.18 110.945 341.031 113.172C338.883 115.398 337.828 118.25 337.828 121.727C337.828 125.242 338.883 128.133 341.031 130.359C343.18 132.586 345.914 133.719 349.234 133.719Z" fill="#111113"/>
<path d="M301.852 143.133L301.734 143.172C295.211 143.172 289.938 141.219 285.875 137.312C281.812 133.406 279.781 128.25 279.781 121.844C279.781 115.711 281.734 110.594 285.641 106.531C289.547 102.469 294.664 100.438 300.953 100.438C307.398 100.438 312.516 102.391 316.266 106.336C320.016 110.281 321.891 115.242 321.891 121.219C321.891 122.859 321.812 124.109 321.656 124.969H290.211C290.562 127.742 291.734 129.969 293.727 131.648C295.719 133.328 298.453 134.148 301.969 134.148C306.656 134.148 309.938 132.352 311.812 128.797L321.344 131.609C320.016 134.656 317.672 137.352 314.273 139.656C310.875 141.961 306.734 143.133 301.852 143.133ZM290.133 118.367H311.539C311.266 115.828 310.172 113.68 308.258 111.961C306.344 110.242 303.883 109.383 300.836 109.383C297.906 109.383 295.484 110.281 293.531 112.039C291.578 113.797 290.445 115.906 290.133 118.367Z" fill="#111113"/>
<path d="M256.383 100.398V100.438C261.578 100.438 265.523 102.039 268.258 105.242C270.992 108.445 272.359 112.82 272.359 118.367V142.039H261.773V120.359C261.773 117.195 261.031 114.734 259.586 112.938C258.141 111.141 255.992 110.242 253.141 110.242C250.211 110.242 247.867 111.297 246.07 113.445C244.273 115.594 243.375 118.445 243.375 122V142H232.828V101.531H243.375V106.648C246.617 102.469 250.953 100.398 256.383 100.398Z" fill="#111113"/>
<path d="M217.047 95.8281V95.9062C215.289 95.9062 213.805 95.3203 212.594 94.1094C211.383 92.8984 210.758 91.4141 210.758 89.6562C210.758 87.9375 211.383 86.4922 212.594 85.3203C213.805 84.1484 215.289 83.5625 217.047 83.5625C218.805 83.5625 220.289 84.1484 221.5 85.3203C222.711 86.4922 223.336 87.9375 223.336 89.6562C223.336 91.4141 222.711 92.8984 221.5 94.0703C220.289 95.2422 218.805 95.8281 217.047 95.8281ZM211.578 142.078V101.609H222.203V142.078H211.578Z" fill="#111113"/>
<path d="M185.445 85.9844L185.367 86.0234C191.188 86.0234 195.875 88.0156 199.469 92C203.062 95.9844 204.859 100.477 204.859 105.477C204.859 110.594 203.062 115.125 199.469 119.031C195.875 122.938 191.031 124.891 184.977 124.891H170.094V142H159.195V85.9844H185.445ZM184.547 115.164L184.469 115.086C187.32 115.086 189.625 114.109 191.422 112.195C193.219 110.281 194.117 108.055 194.117 105.516C194.117 102.977 193.258 100.75 191.539 98.8359C189.82 96.9219 187.672 95.9453 185.055 95.9453H170.016V115.164H184.547Z" fill="#111113"/>
</svg>
