<svg width="21" height="32" viewBox="0 0 21 32" fill="none" xmlns="http://www.w3.org/2000/svg">
<path d="M10.0693 9.48771L10.0694 9.48786V9.48755C10.4532 8.0366 11.2037 6.6554 12.2 5.42823C11.5433 2.28977 10.082 0.0196577 10.0694 0.000127004V0L10.0693 6.34762e-05L10.0693 0V0.000127004C10.0567 0.0196577 8.59536 2.28977 7.93864 5.42823C8.93494 6.6554 9.68548 8.0366 10.0693 9.48755V9.48786L10.0693 9.48771Z" fill="black"/>
<path d="M2.27977 18.8354C2.00784 20.0613 1.85011 21.1152 1.72128 22.3365C3.04761 22.0892 5.15648 21.4401 7.09037 19.2978C9.02426 17.1555 9.58964 14.4087 9.58964 12.9741C9.58964 11.5394 9.51789 8.64106 6.9015 5.85611C5.07376 3.91062 2.99459 3.28042 1.88169 3.04489C3.9331 4.72526 5.11729 6.62576 5.70112 9.17995C3.86783 7.86689 1.5139 7.74656 0.0136719 8.22344C1.29977 8.83931 2.27056 9.52643 3.25914 10.5889C4.07537 11.4952 4.78439 12.4835 5.36103 14.0335C4.07869 14.4597 3.33595 15.3345 2.98744 16.3506C2.63893 17.3668 2.27977 18.8354 2.27977 18.8354Z" fill="black"/>
<path d="M9.57024 31.9955C9.48164 29.4787 8.41104 27.349 6.8905 25.8089C5.55182 24.4529 3.65556 23.5097 1.64875 23.2475C1.56723 24.6008 1.59927 25.6635 1.68678 26.9798C1.77429 28.2961 2.14681 29.2334 2.97841 30.1669C3.82773 31.1021 4.72895 31.3954 5.34201 31.5605C5.95506 31.7255 8.54941 32.0414 9.57024 31.9955Z" fill="black"/>
<path d="M17.8589 18.8354C18.1308 20.0613 18.2885 21.1152 18.4174 22.3365C17.091 22.0892 14.9822 21.4401 13.0483 19.2978C11.1144 17.1555 10.549 14.4087 10.549 12.9741C10.549 11.5394 10.6208 8.64106 13.2371 5.85611C15.0649 3.91062 17.1441 3.28042 18.2569 3.04489C16.2055 4.72526 15.0214 6.62576 14.4375 9.17995C16.2708 7.86689 18.6247 7.74656 20.125 8.22344C18.8389 8.83931 17.8681 9.52643 16.8795 10.5889C16.0633 11.4952 15.3542 12.4835 14.7776 14.0335C16.06 14.4597 16.8027 15.3345 17.1512 16.3506C17.4997 17.3668 17.8589 18.8354 17.8589 18.8354Z" fill="black"/>
<path d="M10.5684 31.9955C10.657 29.4787 11.7276 27.349 13.2481 25.8089C14.5868 24.4529 16.4831 23.5097 18.4899 23.2475C18.5714 24.6008 18.5394 25.6635 18.4519 26.9798C18.3644 28.2961 17.9918 29.2334 17.1602 30.1669C16.3109 31.1021 15.4097 31.3954 14.7966 31.5605C14.1836 31.7255 11.5892 32.0414 10.5684 31.9955Z" fill="black"/>
</svg>
