<svg width="48" height="56" viewBox="0 0 48 56" fill="none" xmlns="http://www.w3.org/2000/svg">
<circle cx="24" cy="28" r="24" fill="#23262A"/>
<path fill-rule="evenodd" clip-rule="evenodd" d="M31 27V24C31 20.134 27.866 17 24 17C20.134 17 17 20.134 17 24V27C17 30.3 14 31.1 14 33C14 34.7 17.9 36 24 36C30.1 36 34 34.7 34 33C34 31.1 31 30.3 31 27Z" stroke="#FFFEF7" stroke-width="2" stroke-linecap="round" stroke-linejoin="round"/>
<path d="M23.9995 38C22.9885 38 22.0385 37.966 21.1445 37.9C21.5357 39.1478 22.6919 39.997 23.9995 39.997C25.3072 39.997 26.4634 39.1478 26.8545 37.9C25.9605 37.966 25.0105 38 23.9995 38Z" fill="#FFFEF7"/>
</svg>
