<svg width="24" height="24" viewBox="0 0 24 24" fill="none" xmlns="http://www.w3.org/2000/svg">
<path d="M9.66357 13.8486C9.45483 13.8486 9.25049 13.7864 9.07617 13.6707C8.90259 13.5542 8.76636 13.3887 8.68652 13.1953C8.60669 13.0027 8.58545 12.7896 8.62646 12.5845C8.66748 12.3794 8.76782 12.1912 8.91577 12.0432C8.98096 11.978 9.0542 11.9216 9.1333 11.8755C9.23364 11.8176 9.34277 11.7759 9.45776 11.7532C9.66284 11.7129 9.87524 11.7334 10.0686 11.814C10.1675 11.855 10.259 11.9106 10.3403 11.978C10.418 12.0425 10.4868 12.1179 10.5432 12.2029C10.6597 12.3772 10.7219 12.5815 10.7219 12.791C10.7219 12.9302 10.6941 13.0671 10.6414 13.1953C10.5879 13.3242 10.5103 13.4407 10.4121 13.5388C10.3132 13.637 10.1968 13.7153 10.0686 13.7681C9.94043 13.8215 9.80273 13.8486 9.66357 13.8486Z" fill="#FFFEF7"/>
<path d="M13.9871 14.9326C13.3931 15.3062 12.7061 15.5039 12.0044 15.5039C11.3027 15.5039 10.615 15.3062 10.021 14.9326C9.97192 14.8879 9.9082 14.8638 9.84229 14.8638C9.77637 14.8638 9.71265 14.8879 9.66357 14.9326C9.63794 14.9561 9.61743 14.9846 9.60352 15.0168C9.5896 15.0483 9.58228 15.0835 9.58228 15.1179C9.58228 15.1531 9.5896 15.1875 9.60352 15.219C9.61743 15.2512 9.63794 15.2798 9.66357 15.3032C10.3579 15.7742 11.1782 16.0261 12.0176 16.0261C12.8562 16.0261 13.6765 15.7742 14.3708 15.3032C14.3965 15.2798 14.417 15.2512 14.4309 15.219C14.4448 15.1875 14.4521 15.1531 14.4521 15.1179C14.4521 15.0959 14.4492 15.0732 14.4434 15.0513L14.4309 15.0168C14.4236 15 14.4148 14.9846 14.4045 14.97C14.3943 14.9561 14.3833 14.9436 14.3708 14.9326C14.3459 14.907 14.3167 14.8865 14.2837 14.8718C14.2507 14.8579 14.2148 14.8506 14.179 14.8506C14.1431 14.8506 14.1079 14.8579 14.075 14.8718C14.042 14.8865 14.012 14.907 13.9871 14.9326Z" fill="#FFFEF7"/>
<path d="M14.3181 11.7334C14.1086 11.7334 13.9043 11.7949 13.73 11.9114C13.5564 12.0278 13.4209 12.1926 13.3411 12.386C13.2605 12.5793 13.24 12.7917 13.2803 12.9976C13.3213 13.2026 13.4224 13.3909 13.5703 13.5388C13.7183 13.6868 13.9065 13.7878 14.1116 13.8281C14.3167 13.8691 14.5298 13.8479 14.7231 13.7681C14.9158 13.6882 15.0813 13.5527 15.1978 13.3784C15.3135 13.2048 15.3757 12.9998 15.3757 12.791C15.3757 12.5105 15.2644 12.241 15.0659 12.0432C14.9766 11.9539 14.8733 11.8828 14.7612 11.8308C14.6235 11.7671 14.4727 11.7334 14.3181 11.7334Z" fill="#FFFEF7"/>
<path fill-rule="evenodd" clip-rule="evenodd" d="M12 24C18.6277 24 24 18.6277 24 12C24 5.37231 18.6277 0 12 0C5.37231 0 0 5.37231 0 12C0 18.6277 5.37231 24 12 24ZM16.9226 9.97485C16.5579 9.99609 16.2144 10.1514 15.9573 10.4106C14.8696 9.69214 13.5981 9.30176 12.2952 9.28711L13.0356 5.94214L15.4021 6.47095C15.4014 6.5625 15.4116 6.65259 15.4336 6.74048C15.4453 6.78589 15.46 6.83057 15.4775 6.87451C15.5295 7.00269 15.6064 7.11987 15.7031 7.21802C15.8005 7.31616 15.9163 7.39453 16.0437 7.448C16.1719 7.50146 16.3081 7.52856 16.4465 7.52856C16.7285 7.5249 16.9973 7.41064 17.1958 7.20996C17.3049 7.09937 17.3877 6.96753 17.4397 6.82397C17.4822 6.70752 17.5042 6.58374 17.5042 6.45776C17.5122 6.21606 17.436 5.97876 17.2888 5.78687C17.1416 5.59497 16.9321 5.46021 16.6963 5.40601C16.5652 5.37524 16.4312 5.37085 16.3008 5.39136C16.196 5.40747 16.0935 5.4397 15.9968 5.4873C15.78 5.59497 15.6072 5.77441 15.5083 5.99487L12.8635 5.41333C12.8005 5.40088 12.7354 5.41333 12.6812 5.44775C12.6541 5.46533 12.6306 5.4873 12.6116 5.51294C12.5933 5.53857 12.5801 5.56714 12.5728 5.5979L11.7532 9.28711C11.1804 9.29517 10.6135 9.375 10.0657 9.52295C9.36768 9.71118 8.70044 10.01 8.09033 10.4106C7.94751 10.2634 7.77393 10.1484 7.5813 10.0745C7.3894 10.0005 7.18359 9.96973 6.97852 9.98364C6.77344 9.99756 6.57349 10.0562 6.39331 10.155C6.30762 10.2019 6.22705 10.2576 6.15308 10.3213C6.07178 10.3909 5.99854 10.47 5.93408 10.5571C5.8125 10.7227 5.72827 10.9131 5.68726 11.1152C5.66455 11.2273 5.65576 11.3423 5.66089 11.4565C5.66455 11.5466 5.677 11.636 5.69824 11.7246C5.74658 11.9246 5.8374 12.1121 5.96484 12.2732C6.09229 12.4343 6.25415 12.5662 6.43799 12.6584C6.41748 12.8789 6.41748 13.1001 6.43799 13.3198C6.43799 15.5544 8.96338 17.3789 12.0703 17.3789C15.1772 17.3789 17.7026 15.5544 17.7026 13.3198C17.7034 13.0928 17.6763 12.8665 17.6235 12.6453C17.7356 12.5823 17.8374 12.5046 17.9268 12.4146C18.0513 12.29 18.1523 12.1421 18.2234 11.978C18.3464 11.6968 18.3735 11.3826 18.3018 11.0845C18.23 10.7856 18.063 10.5183 17.8264 10.3228C17.5898 10.1279 17.2954 10.0144 16.9885 10.0012L16.9226 9.97485Z" fill="#FFFEF7"/>
</svg>
