<svg width="20" height="20" viewBox="0 0 20 20" fill="none" xmlns="http://www.w3.org/2000/svg">
<path d="M2.5 8.68038C2.5 6.01573 2.5 4.6834 2.8146 4.23518C3.12919 3.78695 4.38194 3.35813 6.88743 2.5005L7.36477 2.3371C8.67082 1.89004 9.32384 1.6665 10 1.6665C10.6762 1.6665 11.3292 1.89004 12.6352 2.3371L13.1126 2.5005C15.6181 3.35813 16.8708 3.78695 17.1854 4.23518C17.5 4.6834 17.5 6.01573 17.5 8.68038C17.5 9.08288 17.5 9.51935 17.5 9.99264C17.5 14.691 13.9675 16.9711 11.7512 17.9392C11.15 18.2019 10.8494 18.3332 10 18.3332C9.15062 18.3332 8.85001 18.2019 8.2488 17.9392C6.03247 16.9711 2.5 14.691 2.5 9.99264C2.5 9.51935 2.5 9.08288 2.5 8.68038Z" stroke="black" stroke-width="1.5"/>
<path d="M10 13.3335H10.0083" stroke="black" stroke-width="1.5" stroke-linecap="round" stroke-linejoin="round"/>
<path d="M10 6.6665V9.99984" stroke="black" stroke-width="1.5" stroke-linecap="round" stroke-linejoin="round"/>
</svg>
