<svg width="17" height="17" viewBox="0 0 17 17" fill="none" xmlns="http://www.w3.org/2000/svg">
<path d="M2.125 7.3783C2.125 5.11335 2.125 3.98087 2.39241 3.59988C2.65981 3.21889 3.72465 2.85439 5.85431 2.1254L6.26005 1.98651C7.3702 1.60651 7.92527 1.4165 8.5 1.4165C9.07473 1.4165 9.6298 1.60651 10.7399 1.98651L11.1457 2.1254C13.2754 2.85439 14.3402 3.21889 14.6076 3.59988C14.875 3.98087 14.875 5.11335 14.875 7.3783C14.875 7.72042 14.875 8.09142 14.875 8.49372C14.875 12.4874 11.8724 14.4254 9.98852 15.2483C9.47749 15.4716 9.22198 15.5832 8.5 15.5832C7.77802 15.5832 7.52251 15.4716 7.01148 15.2483C5.1276 14.4254 2.125 12.4874 2.125 8.49372C2.125 8.09142 2.125 7.72042 2.125 7.3783Z" stroke="#808080"/>
<path d="M11.3332 8.18145L8.92484 6.3752C8.67299 6.18631 8.32669 6.18631 8.07484 6.3752L5.6665 8.18145M9.9165 9.95229L8.49984 8.88979L7.08317 9.95229" stroke="#808080" stroke-linecap="round" stroke-linejoin="round"/>
</svg>
