<svg width="16" height="16" viewBox="0 0 16 16" fill="none" xmlns="http://www.w3.org/2000/svg">
<path d="M8.00976 0C6.42756 0 4.88079 0.469189 3.5652 1.34824C2.24961 2.22729 1.22423 3.47672 0.618735 4.93853C0.0132351 6.40029 -0.145195 8.00889 0.163485 9.56069C0.472164 11.1126 1.23409 12.538 2.35291 13.6569C3.47173 14.7757 4.89719 15.5376 6.44906 15.8463C8.00086 16.155 9.60946 15.9965 11.0713 15.391C12.5331 14.7855 13.7825 13.7602 14.6616 12.4446C15.5406 11.129 16.0098 9.58229 16.0098 7.99999C16.0098 5.87826 15.1669 3.84344 13.6667 2.34315C12.1664 0.842849 10.1315 0 8.00976 0ZM11.9398 5.47999L10.6298 11.67C10.5298 12.11 10.2698 12.21 9.89976 12.01L7.89976 10.53L6.89976 11.46C6.85266 11.5215 6.79216 11.5715 6.72286 11.6062C6.65356 11.6408 6.57726 11.6592 6.49976 11.66L6.63976 9.65999L10.3398 6.30999C10.5098 6.16999 10.3398 6.08999 10.0998 6.22999L5.55976 9.07999L3.55976 8.45999C3.12976 8.32999 3.11976 8.02999 3.64976 7.82999L11.3598 4.83C11.7398 4.72 12.0598 4.93999 11.9398 5.47999Z" fill="#FFFEF7"/>
</svg>
