<svg width="17" height="18" viewBox="0 0 17 18" fill="none" xmlns="http://www.w3.org/2000/svg">
<path d="M12.0418 9.70989L10.2642 13.7094C9.62223 15.154 7.75719 16.16 7.21142 14.6764C7.12875 14.4517 7.08348 14.2102 7.08348 13.9599V11.1266H3.07431C2.86896 11.1289 2.66556 11.0865 2.4782 11.0024C2.29084 10.9184 2.124 10.7945 1.98924 10.6396C1.85449 10.4846 1.75504 10.3022 1.69778 10.105C1.64052 9.90774 1.62683 9.70043 1.65764 9.49739L2.63514 3.12239C2.68637 2.78458 2.85796 2.47667 3.11829 2.25539C3.37863 2.0341 3.71016 1.91436 4.05181 1.91822H12.0418M12.0418 9.70989V1.91822M12.0418 9.70989H13.9331C14.3339 9.71698 14.7235 9.57663 15.0277 9.31548C15.332 9.05433 15.5297 8.69056 15.5835 8.29322V3.33489C15.5297 2.93756 15.332 2.57379 15.0277 2.31264C14.7235 2.05149 14.3339 1.91113 13.9331 1.91822H12.0418" stroke="#808080" stroke-width="1.5" stroke-linecap="round" stroke-linejoin="round"/>
</svg>
