<svg width="17" height="17" viewBox="0 0 17 17" fill="none" xmlns="http://www.w3.org/2000/svg">
<path d="M4.95866 7.79297L6.73624 3.79341C7.37824 2.3489 9.24328 1.34287 9.78905 2.82642C9.87172 3.05114 9.91699 3.29262 9.91699 3.54297V6.3763H13.9262C14.1315 6.37398 14.3349 6.41633 14.5223 6.50041C14.7096 6.5845 14.8765 6.70832 15.0112 6.86329C15.146 7.01826 15.2454 7.20068 15.3027 7.3979C15.3599 7.59512 15.3736 7.80243 15.3428 8.00547L14.3653 14.3805C14.3141 14.7183 14.1425 15.0262 13.8822 15.2475C13.6218 15.4688 13.2903 15.5885 12.9487 15.5846H4.95866M4.95866 7.79297V15.5846M4.95866 7.79297H2.83366C2.45794 7.79297 2.0976 7.94222 1.83192 8.2079C1.56625 8.47358 1.41699 8.83391 1.41699 9.20964V14.168C1.41699 14.5437 1.56625 14.904 1.83192 15.1697C2.0976 15.4354 2.45794 15.5846 2.83366 15.5846H4.95866" stroke="#FFFEF7" stroke-width="1.5" stroke-linecap="round" stroke-linejoin="round"/>
</svg>
