<svg width="25" height="24" viewBox="0 0 25 24" fill="none" xmlns="http://www.w3.org/2000/svg">
<path d="M24.0292 12C24.0292 5.37266 18.6494 9.60612e-05 12.022 6.19241e-05V6.19241e-05C5.38883 2.77574e-05 0.00656922 5.38154 0.0146663 12.0147V12.0147C0.0227493 18.6364 5.40023 24 12.0219 24V24C18.6493 24 24.0292 18.6274 24.0292 12V12ZM18.892 10.4701C18.7612 10.4833 18.6292 10.4893 18.4984 10.4905C17.7864 10.4914 17.0855 10.3149 16.4588 9.97697C15.8322 9.63903 15.2996 9.15028 14.9092 8.55488V15.1464C14.9095 16.1104 14.6238 17.0527 14.0884 17.8543C13.5531 18.6559 12.792 19.2807 11.9015 19.6496C11.011 20.0186 10.031 20.1152 9.08563 19.9272C8.14022 19.7392 7.27179 19.2751 6.59019 18.5935C5.90859 17.9119 5.44444 17.0435 5.25645 16.0981C5.06846 15.1526 5.16506 14.1727 5.53405 13.2822C5.90304 12.3917 6.52783 11.6306 7.3294 11.0952C8.13098 10.5599 9.07332 10.2742 10.0372 10.2745C10.1392 10.2745 10.2376 10.2841 10.3384 10.2901V12.6901C10.0027 12.6494 9.66221 12.6778 9.33786 12.7736C9.01351 12.8693 8.71217 13.0304 8.45235 13.2469C8.19254 13.4634 7.97975 13.7307 7.82704 14.0325C7.67434 14.3342 7.58496 14.664 7.56439 15.0016C7.54382 15.3391 7.59249 15.6773 7.70743 15.9954C7.82236 16.3135 8.00112 16.6047 8.23272 16.8511C8.46433 17.0975 8.74388 17.294 9.0542 17.4284C9.36452 17.5629 9.69906 17.6324 10.0372 17.6328C10.7046 17.6449 11.3501 17.3946 11.8348 16.9357C12.3196 16.4767 12.6048 15.8459 12.6292 15.1788L12.6532 3.9817H14.95C15.0549 4.97944 15.5072 5.90856 16.2278 6.60657C16.9484 7.30458 17.8914 7.72704 18.892 7.80008V10.4701Z" fill="#FFFEF7"/>
</svg>
