<svg width="16" height="16" viewBox="0 0 16 16" fill="none" xmlns="http://www.w3.org/2000/svg">
<path fill-rule="evenodd" clip-rule="evenodd" d="M8.00977 16C12.428 16 16.0098 12.4183 16.0098 8C16.0098 3.58172 12.428 0 8.00977 0C3.59149 0 0.00976562 3.58172 0.00976562 8C0.00976562 12.4183 3.59149 16 8.00977 16ZM4.00977 8C4.00977 5.79094 5.8007 4 8.00977 4C10.2188 4 12.0098 5.79094 12.0098 8C12.0098 10.2091 10.2188 12 8.00977 12C5.8007 12 4.00977 10.2091 4.00977 8ZM5.81377 6.40002C6.00244 5.68334 6.31097 5.07387 6.70056 4.65014C5.86709 4.97694 5.18444 5.60533 4.78709 6.40002H5.81377ZM4.62323 6.8C4.48909 7.17614 4.40977 7.57814 4.40977 8C4.40977 8.42188 4.48909 8.82386 4.62323 9.2H5.72456C5.6527 8.82041 5.60977 8.41933 5.60977 8C5.60977 7.58067 5.6527 7.17959 5.7247 6.8H4.62323ZM5.81377 9.6H4.78709C5.18444 10.3947 5.86709 11.0231 6.70056 11.3499C6.31097 10.9261 6.00256 10.3167 5.81377 9.6ZM6.22603 9.6C6.53044 10.6711 7.12523 11.4521 7.80977 11.5811V9.6H6.22603ZM6.1307 9.2H7.80977V6.8H6.1307C6.05377 7.17759 6.00977 7.5812 6.00977 8C6.00977 8.4188 6.05377 8.82241 6.1307 9.2ZM6.22603 6.4H7.80977V4.41894C7.12523 4.54786 6.53044 5.32894 6.22603 6.4ZM10.2058 6.4H11.2324C10.8351 5.60533 10.1524 4.97694 9.31897 4.65013C9.70856 5.07386 10.017 5.68333 10.2058 6.4ZM9.7935 6.4C9.48909 5.32894 8.8943 4.54787 8.20977 4.41894V6.4H9.7935ZM9.88883 6.8H8.20977V9.2H9.88883C9.96577 8.82241 10.0098 8.4188 10.0098 8C10.0098 7.5812 9.96577 7.17759 9.88883 6.8ZM8.20977 9.6V11.5811C8.8943 11.4521 9.48909 10.6711 9.7935 9.6H8.20977ZM10.2058 9.6C10.017 10.3167 9.70856 10.926 9.31897 11.3499C10.1524 11.0231 10.8351 10.3947 11.2324 9.6H10.2058ZM10.4098 8C10.4098 8.41933 10.3668 8.82041 10.2948 9.2H11.3963C11.5304 8.82386 11.6098 8.42188 11.6098 8C11.6098 7.57814 11.5304 7.17614 11.3964 6.8H10.295C10.3668 7.17959 10.4098 7.58067 10.4098 8Z" fill="#FFFEF7"/>
</svg>
