<svg width="24" height="24" viewBox="0 0 24 24" fill="none" xmlns="http://www.w3.org/2000/svg">
<g clip-path="url(#clip0_247_18218)">
<path d="M8.28516 12.6011C8.28516 13.4764 8.91502 14.188 9.68393 14.188C10.4692 14.188 11.0827 13.4682 11.0827 12.6011C11.0909 11.7259 10.4692 11.0142 9.68393 11.0142C8.89866 11.0142 8.28516 11.7259 8.28516 12.6011Z" fill="#E1C925"/>
<path d="M13.4492 12.6011C13.4492 13.4764 14.0791 14.188 14.848 14.188C15.6332 14.188 16.2467 13.4682 16.2467 12.6011C16.2549 11.7259 15.6332 11.0142 14.848 11.0142C14.0627 11.0142 13.4492 11.7259 13.4492 12.6011Z" fill="#E1C925"/>
<path fill-rule="evenodd" clip-rule="evenodd" d="M12 24C18.6274 24 24 18.6274 24 12C24 5.37258 18.6274 0 12 0C5.37258 0 0 5.37258 0 12C0 18.6274 5.37258 24 12 24ZM14.4536 6C15.5825 6.19632 16.654 6.53988 17.6602 7.00613H17.6765C19.4352 9.62371 20.3023 12.5767 19.9833 15.9877C18.6418 16.9939 17.333 17.5992 16.0487 18C15.7297 17.5665 15.4516 17.1002 15.2062 16.6176C15.6643 16.4376 16.1142 16.225 16.5313 15.9714C16.4168 15.8896 16.3105 15.8078 16.2041 15.7178C13.6765 16.9121 10.9035 16.9121 8.34323 15.7178C8.30521 15.747 8.26719 15.7773 8.22879 15.8079C8.1598 15.8629 8.0896 15.9188 8.01603 15.9714C8.43321 16.225 8.87493 16.4458 9.34118 16.6176C9.09578 17.1002 8.81767 17.5665 8.49865 18C7.2144 17.5992 5.91379 16.9939 4.5641 15.9877C4.29416 13.0511 4.84222 10.0654 6.87084 7.00613C7.87697 6.53988 8.94855 6.19632 10.0774 6C10.2164 6.2454 10.38 6.58078 10.4946 6.85071C11.6643 6.67076 12.8504 6.67076 14.0446 6.85071C14.151 6.58078 14.3146 6.2454 14.4536 6Z" fill="#E1C925"/>
</g>
<defs>
<clipPath id="clip0_247_18218">
<rect width="24" height="24" fill="white"/>
</clipPath>
</defs>
</svg>
