<svg width="16" height="16" viewBox="0 0 16 16" fill="none" xmlns="http://www.w3.org/2000/svg">
<g clip-path="url(#clip0_248_18247)">
<path d="M8.01171 0C6.42951 0 4.88274 0.469189 3.56715 1.34824C2.25156 2.22729 1.22618 3.47672 0.620688 4.93853C0.0151881 6.40029 -0.143242 8.00889 0.165438 9.56069C0.474117 11.1126 1.23604 12.538 2.35486 13.6569C3.47368 14.7757 4.89914 15.5376 6.45101 15.8463C8.00281 16.155 9.61141 15.9965 11.0733 15.391C12.5351 14.7855 13.7845 13.7602 14.6636 12.4446C15.5426 11.129 16.0118 9.58229 16.0118 7.99999C16.0118 5.87826 15.1689 3.84344 13.6687 2.34315C12.1684 0.842849 10.1335 0 8.01171 0ZM11.9418 5.47999L10.6318 11.67C10.5318 12.11 10.2718 12.21 9.90171 12.01L7.90171 10.53L6.90171 11.46C6.85461 11.5215 6.79411 11.5715 6.72481 11.6062C6.65551 11.6408 6.57921 11.6592 6.50171 11.66L6.64171 9.65999L10.3418 6.30999C10.5118 6.16999 10.3418 6.08999 10.1018 6.22999L5.56171 9.07999L3.56171 8.45999C3.13171 8.32999 3.12171 8.02999 3.65171 7.82999L11.3618 4.83C11.7418 4.72 12.0618 4.93999 11.9418 5.47999Z" fill="#E1C925"/>
</g>
<defs>
<clipPath id="clip0_248_18247">
<rect width="16" height="16" fill="white"/>
</clipPath>
</defs>
</svg>
