<svg width="173" height="173" viewBox="0 0 173 173" fill="none" xmlns="http://www.w3.org/2000/svg">
<g clip-path="url(#clip0_202_707)">
<path d="M86.5 0C38.7348 0 0 38.7348 0 86.5C0 134.265 38.7348 173 86.5 173C134.265 173 173 134.265 173 86.5C173 38.7348 134.265 0 86.5 0ZM61.3643 130.764H40.2975V67.3842H61.364L61.3643 130.764ZM50.8313 58.7294H50.6941C43.6247 58.7294 39.0527 53.8631 39.0527 47.7811C39.0527 41.5619 43.7646 36.8301 50.9715 36.8301C58.178 36.8301 62.6128 41.5619 62.75 47.7811C62.75 53.8631 58.178 58.7298 50.8313 58.7298V58.7294ZM137.327 130.764H116.262V96.857C116.262 88.3361 113.212 82.5244 105.59 82.5244C99.7703 82.5244 96.3046 86.4446 94.7814 90.2286C94.2242 91.5829 94.0884 93.4758 94.0884 95.3696V130.764H73.0229C73.0229 130.764 73.299 73.33 73.0229 67.3842H94.0884V76.3579C96.8878 72.0396 101.897 65.8968 113.074 65.8968C126.934 65.8968 137.327 74.955 137.327 94.4218V130.764Z" fill="#E1C925"/>
</g>
<defs>
<clipPath id="clip0_202_707">
<rect width="173" height="173" fill="white"/>
</clipPath>
</defs>
</svg>
