<svg width="33" height="33" viewBox="0 0 33 33" fill="none" xmlns="http://www.w3.org/2000/svg">
<g clip-path="url(#clip0_89_6529)">
<mask id="mask0_89_6529" style="mask-type:luminance" maskUnits="userSpaceOnUse" x="0" y="0" width="33" height="33">
<path d="M33 0H0V33H33V0Z" fill="white"/>
</mask>
<g mask="url(#mask0_89_6529)">
<path d="M16.5 33C25.6127 33 33 25.6127 33 16.5C33 7.3873 25.6127 0 16.5 0C7.3873 0 0 7.3873 0 16.5C0 25.6127 7.3873 33 16.5 33Z" fill="#FCE025"/>
<path fill-rule="evenodd" clip-rule="evenodd" d="M19.8673 13.7727C19.9093 13.7307 19.9427 13.6809 19.9654 13.626C19.9882 13.5711 19.9999 13.5123 20 13.4529C20 13.3935 19.9884 13.3347 19.9656 13.2798C19.9429 13.2249 19.9096 13.175 19.8677 13.1329C19.8257 13.0909 19.7759 13.0576 19.721 13.0348C19.6661 13.012 19.6073 13.0003 19.5479 13.0003C19.4885 13.0003 19.4296 13.0119 19.3748 13.0346C19.3199 13.0573 19.27 13.0906 19.228 13.1326L16.4999 15.8606L13.7727 13.1326C13.6878 13.0477 13.5727 13 13.4526 13C13.3326 13 13.2174 13.0477 13.1326 13.1326C13.0477 13.2174 13 13.3326 13 13.4526C13 13.5727 13.0477 13.6878 13.1326 13.7727L15.8606 16.5L13.1326 19.2273C13.0905 19.2693 13.0571 19.3192 13.0344 19.3741C13.0117 19.4291 13 19.4879 13 19.5474C13 19.6068 13.0117 19.6657 13.0344 19.7206C13.0571 19.7755 13.0905 19.8254 13.1326 19.8674C13.2174 19.9523 13.3326 20 13.4526 20C13.5121 20 13.5709 19.9883 13.6258 19.9655C13.6807 19.9428 13.7307 19.9094 13.7727 19.8674L16.4999 17.1394L19.228 19.8674C19.3129 19.9522 19.4279 19.9998 19.5479 19.9997C19.6679 19.9996 19.7829 19.9519 19.8677 19.867C19.9525 19.7821 20.0001 19.6671 20 19.547C19.9999 19.4271 19.9521 19.312 19.8673 19.2273L17.1392 16.5L19.8673 13.7727Z" fill="black"/>
</g>
</g>
<defs>
<clipPath id="clip0_89_6529">
<rect width="33" height="33" fill="white"/>
</clipPath>
</defs>
</svg>
