<svg width="16" height="16" viewBox="0 0 16 16" fill="none" xmlns="http://www.w3.org/2000/svg">
<g clip-path="url(#clip0_249_18251)">
<path d="M11.2549 11.1875H10.5029L5.59375 4.76953H6.40039L11.2549 11.1875Z" fill="#E1C925"/>
<path fill-rule="evenodd" clip-rule="evenodd" d="M8.00782 16C12.4262 16 16.0078 12.4185 16.0078 8C16.0078 3.58154 12.4262 0 8.00782 0C3.58936 0 0.0078125 3.58154 0.0078125 8C0.0078125 12.4185 3.58936 16 8.00782 16ZM12.3349 4H10.978L8.7417 6.55615L6.80811 4H4.00782L7.35401 8.37549L4.18262 12H5.54053L7.98828 9.20312L10.1269 12H12.8584L9.37012 7.38867L12.3349 4Z" fill="#E1C925"/>
</g>
<defs>
<clipPath id="clip0_249_18251">
<rect width="16" height="16" fill="white"/>
</clipPath>
</defs>
</svg>
