<svg width="25" height="24" viewBox="0 0 25 24" fill="none" xmlns="http://www.w3.org/2000/svg">
<path d="M24.0302 11.9999C24.0302 5.3726 18.6504 3.41373e-05 12.023 1.6269e-10C5.3898 -3.41665e-05 0.00753704 5.38148 0.0156341 12.0146C0.0237171 18.6363 5.4012 23.9999 12.0229 23.9999C18.6503 23.9999 24.0302 18.6273 24.0302 11.9999ZM18.893 10.47C18.7622 10.4832 18.6302 10.4892 18.4994 10.4904C17.7874 10.4913 17.0865 10.3148 16.4598 9.97691C15.8332 9.63897 15.3006 9.15022 14.9102 8.55482V15.1463C14.9105 16.1103 14.6248 17.0526 14.0894 17.8542C13.5541 18.6558 12.793 19.2806 11.9025 19.6495C11.012 20.0185 10.032 20.1151 9.0866 19.9271C8.14119 19.7391 7.27276 19.275 6.59116 18.5934C5.90956 17.9118 5.44541 17.0434 5.25742 16.098C5.06943 15.1525 5.16603 14.1726 5.53502 13.2821C5.90401 12.3916 6.5288 11.6305 7.33037 11.0951C8.13195 10.5598 9.07429 10.2741 10.0382 10.2744C10.1402 10.2744 10.2386 10.284 10.3394 10.29V12.69C10.0037 12.6493 9.66318 12.6777 9.33883 12.7735C9.01448 12.8692 8.71314 13.0303 8.45332 13.2468C8.19351 13.4633 7.98072 13.7306 7.82801 14.0324C7.67531 14.3341 7.58593 14.6639 7.56536 15.0015C7.54479 15.339 7.59346 15.6772 7.7084 15.9953C7.82333 16.3134 8.00209 16.6046 8.23369 16.851C8.4653 17.0974 8.74485 17.2939 9.05517 17.4283C9.36549 17.5628 9.70003 17.6323 10.0382 17.6327C10.7056 17.6448 11.3511 17.3945 11.8358 16.9356C12.3206 16.4766 12.6058 15.8458 12.6302 15.1787L12.6542 3.98164H14.951C15.0559 4.97938 15.5082 5.9085 16.2288 6.60651C16.9494 7.30452 17.8924 7.72698 18.893 7.80002V10.47Z" fill="#E1C925"/>
</svg>
