<svg width="16" height="16" viewBox="0 0 16 16" fill="none" xmlns="http://www.w3.org/2000/svg">
<g clip-path="url(#clip0_249_18254)">
<path fill-rule="evenodd" clip-rule="evenodd" d="M8.00782 16C12.426 16 16.0078 12.4183 16.0078 8C16.0078 3.58172 12.426 0 8.00782 0C3.58954 0 0.0078125 3.58172 0.0078125 8C0.0078125 12.4183 3.58954 16 8.00782 16ZM4.00782 8C4.00782 5.79094 5.79875 4 8.00782 4C10.2168 4 12.0078 5.79094 12.0078 8C12.0078 10.2091 10.2168 12 8.00782 12C5.79875 12 4.00782 10.2091 4.00782 8ZM5.81182 6.40002C6.00049 5.68334 6.30902 5.07387 6.69861 4.65014C5.86514 4.97694 5.18249 5.60533 4.78514 6.40002H5.81182ZM4.62128 6.8C4.48714 7.17614 4.40782 7.57814 4.40782 8C4.40782 8.42188 4.48714 8.82386 4.62128 9.2H5.72261C5.65075 8.82041 5.60782 8.41933 5.60782 8C5.60782 7.58067 5.65075 7.17959 5.72275 6.8H4.62128ZM5.81182 9.6H4.78514C5.18249 10.3947 5.86514 11.0231 6.69861 11.3499C6.30902 10.9261 6.00061 10.3167 5.81182 9.6ZM6.22408 9.6C6.52849 10.6711 7.12328 11.4521 7.80782 11.5811V9.6H6.22408ZM6.12875 9.2H7.80782V6.8H6.12875C6.05182 7.17759 6.00782 7.5812 6.00782 8C6.00782 8.4188 6.05182 8.82241 6.12875 9.2ZM6.22408 6.4H7.80782V4.41894C7.12328 4.54786 6.52849 5.32894 6.22408 6.4ZM10.2038 6.4H11.2304C10.8331 5.60533 10.1504 4.97694 9.31702 4.65013C9.70661 5.07386 10.015 5.68333 10.2038 6.4ZM9.79155 6.4C9.48714 5.32894 8.89235 4.54787 8.20782 4.41894V6.4H9.79155ZM9.88688 6.8H8.20782V9.2H9.88688C9.96382 8.82241 10.0078 8.4188 10.0078 8C10.0078 7.5812 9.96382 7.17759 9.88688 6.8ZM8.20782 9.6V11.5811C8.89235 11.4521 9.48714 10.6711 9.79155 9.6H8.20782ZM10.2038 9.6C10.015 10.3167 9.70661 10.926 9.31702 11.3499C10.1504 11.0231 10.8331 10.3947 11.2304 9.6H10.2038ZM10.4078 8C10.4078 8.41933 10.3648 8.82041 10.2928 9.2H11.3943C11.5284 8.82386 11.6078 8.42188 11.6078 8C11.6078 7.57814 11.5284 7.17614 11.3944 6.8H10.293C10.3648 7.17959 10.4078 7.58067 10.4078 8Z" fill="#E1C925"/>
</g>
<defs>
<clipPath id="clip0_249_18254">
<rect width="16" height="16" fill="white"/>
</clipPath>
</defs>
</svg>
