<svg width="24" height="24" viewBox="0 0 24 24" fill="none" xmlns="http://www.w3.org/2000/svg">
<g clip-path="url(#clip0_248_18240)">
<path fill-rule="evenodd" clip-rule="evenodd" d="M12 24C18.6277 24 24 18.6277 24 12C24 5.37231 18.6277 0 12 0C5.37231 0 0 5.37231 0 12C0 18.6277 5.37231 24 12 24ZM12 12C12 14.4851 9.98511 16.5 7.5 16.5C5.01489 16.5 3 14.4851 3 12C3 9.51489 5.01489 7.5 7.5 7.5C9.98511 7.5 12 9.51489 12 12ZM19.5 12C19.5 14.0713 19.1646 15.75 18.75 15.75C18.5054 15.75 18.2878 15.1641 18.1509 14.2581C18.0564 13.6304 18 12.8481 18 12C18 9.92871 18.3354 8.25 18.75 8.25C19.1646 8.25 19.5 9.92871 19.5 12ZM17.25 12C17.25 14.4851 16.2429 16.5 15 16.5C13.7571 16.5 12.75 14.4851 12.75 12C12.75 9.51489 13.7571 7.5 15 7.5C16.2429 7.5 17.25 9.51489 17.25 12Z" fill="#E1C925"/>
</g>
<defs>
<clipPath id="clip0_248_18240">
<rect width="24" height="24" fill="white"/>
</clipPath>
</defs>
</svg>
