<svg width="24" height="24" viewBox="0 0 24 24" fill="none" xmlns="http://www.w3.org/2000/svg">
<g clip-path="url(#clip0_247_18233)">
<path d="M9.67578 11.9999C9.67578 13.2839 10.7204 14.3279 12.005 14.3279C13.2896 14.3279 14.3342 13.2839 14.3342 11.9999C14.3342 10.7159 13.2896 9.67188 12.005 9.67188C10.7204 9.67188 9.67578 10.7159 9.67578 11.9999Z" fill="#E1C925"/>
<path d="M15.4288 9.12614C15.4828 9.06614 15.5248 9.00014 15.5549 8.92814C15.5849 8.85614 15.6029 8.77814 15.6029 8.70014C15.6029 8.62214 15.5849 8.54414 15.5549 8.47214C15.5248 8.39414 15.4828 8.33414 15.4288 8.27414C15.4188 8.26614 15.4088 8.25747 15.3988 8.24881C15.3788 8.23147 15.3588 8.21414 15.3388 8.20214C15.3027 8.17814 15.2667 8.16014 15.2307 8.14814C15.1947 8.13014 15.1587 8.11814 15.1166 8.11214C14.9245 8.07014 14.7144 8.13614 14.5764 8.27414C14.5223 8.33414 14.4803 8.39414 14.4503 8.47214C14.4203 8.54414 14.4023 8.62214 14.4023 8.70014C14.4023 8.77814 14.4203 8.85614 14.4503 8.92814C14.4803 9.00014 14.5223 9.06614 14.5764 9.12614C14.6904 9.24014 14.8405 9.30014 15.0026 9.30014C15.0806 9.30014 15.1587 9.28214 15.2307 9.25214C15.3027 9.22214 15.3688 9.18014 15.4288 9.12614Z" fill="#E1C925"/>
<path fill-rule="evenodd" clip-rule="evenodd" d="M12 24C18.6274 24 24 18.6274 24 12C24 5.37258 18.6274 0 12 0C5.37258 0 0 5.37258 0 12C0 18.6274 5.37258 24 12 24ZM9.48774 6H14.5182C16.7033 6 18.006 7.302 18 9.486V14.514C18 16.698 16.6973 18 14.5122 18H9.48774C7.30265 18 6 16.698 6 14.508V9.486C6 7.302 7.30265 6 9.48774 6Z" fill="#E1C925"/>
</g>
<defs>
<clipPath id="clip0_247_18233">
<rect width="24" height="24" fill="white"/>
</clipPath>
</defs>
</svg>
