<svg width="24" height="24" viewBox="0 0 24 24" fill="none" xmlns="http://www.w3.org/2000/svg">
<g clip-path="url(#clip0_248_18242)">
<path d="M9.66297 13.8484C9.45423 13.8484 9.24989 13.7862 9.07557 13.6705C8.90199 13.554 8.76576 13.3885 8.68592 13.1951C8.60609 13.0025 8.58485 12.7894 8.62586 12.5843C8.66688 12.3792 8.76722 12.191 8.91517 12.043C8.98036 11.9778 9.0536 11.9214 9.1327 11.8753C9.23304 11.8174 9.34217 11.7757 9.45716 11.753C9.66224 11.7127 9.87464 11.7332 10.068 11.8138C10.1669 11.8548 10.2584 11.9104 10.3397 11.9778C10.4174 12.0423 10.4862 12.1177 10.5426 12.2027C10.6591 12.377 10.7213 12.5813 10.7213 12.7908C10.7213 12.93 10.6935 13.0669 10.6408 13.1951C10.5873 13.324 10.5097 13.4405 10.4115 13.5386C10.3126 13.6368 10.1962 13.7151 10.068 13.7679C9.93983 13.8213 9.80213 13.8484 9.66297 13.8484Z" fill="#E1C925"/>
<path d="M13.9869 14.9326C13.3929 15.3062 12.7059 15.5039 12.0042 15.5039C11.3025 15.5039 10.6148 15.3062 10.0208 14.9326C9.97167 14.8879 9.90795 14.8638 9.84204 14.8638C9.77612 14.8638 9.7124 14.8879 9.66332 14.9326C9.63769 14.9561 9.61718 14.9846 9.60327 15.0168C9.58935 15.0483 9.58203 15.0835 9.58203 15.1179C9.58203 15.1531 9.58935 15.1875 9.60327 15.219C9.61718 15.2512 9.63769 15.2798 9.66332 15.3032C10.3577 15.7742 11.178 16.0261 12.0174 16.0261C12.856 16.0261 13.6763 15.7742 14.3706 15.3032C14.3963 15.2798 14.4168 15.2512 14.4307 15.219C14.4446 15.1875 14.4519 15.1531 14.4519 15.1179C14.4519 15.0959 14.449 15.0732 14.4432 15.0513L14.4307 15.0168C14.4234 15 14.4146 14.9846 14.4043 14.97C14.3941 14.9561 14.3831 14.9436 14.3706 14.9326C14.3457 14.907 14.3165 14.8865 14.2835 14.8718C14.2505 14.8579 14.2146 14.8506 14.1788 14.8506C14.1429 14.8506 14.1077 14.8579 14.0748 14.8718C14.0418 14.8865 14.0118 14.907 13.9869 14.9326Z" fill="#E1C925"/>
<path d="M14.3196 11.7334C14.1101 11.7334 13.9058 11.7949 13.7315 11.9114C13.5579 12.0278 13.4224 12.1926 13.3426 12.386C13.262 12.5793 13.2415 12.7917 13.2818 12.9976C13.3228 13.2026 13.4239 13.3909 13.5718 13.5388C13.7198 13.6868 13.908 13.7878 14.1131 13.8281C14.3182 13.8691 14.5313 13.8479 14.7246 13.7681C14.9173 13.6882 15.0828 13.5527 15.1993 13.3784C15.315 13.2048 15.3772 12.9998 15.3772 12.791C15.3772 12.5105 15.2659 12.241 15.0674 12.0432C14.9781 11.9539 14.8748 11.8828 14.7627 11.8308C14.625 11.7671 14.4742 11.7334 14.3196 11.7334Z" fill="#E1C925"/>
<path fill-rule="evenodd" clip-rule="evenodd" d="M12 24C18.6277 24 24 18.6277 24 12C24 5.37231 18.6277 0 12 0C5.37231 0 0 5.37231 0 12C0 18.6277 5.37231 24 12 24ZM16.9226 9.97485C16.5579 9.99609 16.2144 10.1514 15.9573 10.4106C14.8696 9.69214 13.5981 9.30176 12.2952 9.28711L13.0356 5.94214L15.4021 6.47095C15.4014 6.5625 15.4116 6.65259 15.4336 6.74048C15.4453 6.78589 15.46 6.83057 15.4775 6.87451C15.5295 7.00269 15.6064 7.11987 15.7031 7.21802C15.8005 7.31616 15.9163 7.39453 16.0437 7.448C16.1719 7.50146 16.3081 7.52856 16.4465 7.52856C16.7285 7.5249 16.9973 7.41064 17.1958 7.20996C17.3049 7.09937 17.3877 6.96753 17.4397 6.82397C17.4822 6.70752 17.5042 6.58374 17.5042 6.45776C17.5122 6.21606 17.436 5.97876 17.2888 5.78687C17.1416 5.59497 16.9321 5.46021 16.6963 5.40601C16.5652 5.37524 16.4312 5.37085 16.3008 5.39136C16.196 5.40747 16.0935 5.4397 15.9968 5.4873C15.78 5.59497 15.6072 5.77441 15.5083 5.99487L12.8635 5.41333C12.8005 5.40088 12.7354 5.41333 12.6812 5.44775C12.6541 5.46533 12.6306 5.4873 12.6116 5.51294C12.5933 5.53857 12.5801 5.56714 12.5728 5.5979L11.7532 9.28711C11.1804 9.29517 10.6135 9.375 10.0657 9.52295C9.36768 9.71118 8.70044 10.01 8.09033 10.4106C7.94751 10.2634 7.77393 10.1484 7.5813 10.0745C7.3894 10.0005 7.18359 9.96973 6.97852 9.98364C6.77344 9.99756 6.57349 10.0562 6.39331 10.155C6.30762 10.2019 6.22705 10.2576 6.15308 10.3213C6.07178 10.3909 5.99854 10.47 5.93408 10.5571C5.8125 10.7227 5.72827 10.9131 5.68726 11.1152C5.66455 11.2273 5.65576 11.3423 5.66089 11.4565C5.66455 11.5466 5.677 11.636 5.69824 11.7246C5.74658 11.9246 5.8374 12.1121 5.96484 12.2732C6.09229 12.4343 6.25415 12.5662 6.43799 12.6584C6.41748 12.8789 6.41748 13.1001 6.43799 13.3198C6.43799 15.5544 8.96338 17.3789 12.0703 17.3789C15.1772 17.3789 17.7026 15.5544 17.7026 13.3198C17.7034 13.0928 17.6763 12.8665 17.6235 12.6453C17.7356 12.5823 17.8374 12.5046 17.9268 12.4146C18.0513 12.29 18.1523 12.1421 18.2234 11.978C18.3464 11.6968 18.3735 11.3826 18.3018 11.0845C18.23 10.7856 18.063 10.5183 17.8264 10.3228C17.5898 10.1279 17.2954 10.0144 16.9885 10.0012L16.9226 9.97485Z" fill="#E1C925"/>
</g>
<defs>
<clipPath id="clip0_248_18242">
<rect width="24" height="24" fill="white"/>
</clipPath>
</defs>
</svg>
