<svg width="24" height="24" viewBox="0 0 24 24" fill="none" xmlns="http://www.w3.org/2000/svg">
<g clip-path="url(#clip0_66_7571)">
<path d="M10.6479 14.3063L14.5761 12.0001L10.6479 9.69385V14.3063Z" fill="#FFFEF7"/>
<path d="M12 0C5.37188 0 0 5.37188 0 12C0 18.6281 5.37188 24 12 24C18.6281 24 24 18.6281 24 12C24 5.37188 18.6281 0 12 0ZM18 14.1469C18 16.2141 15.9328 16.2141 15.9328 16.2141H8.06719C6 16.2141 6 14.1469 6 14.1469V9.85781C6 7.79062 8.06719 7.79063 8.06719 7.79063H15.9328C18 7.79063 18 9.85781 18 9.85781V14.1469Z" fill="#FFFEF7"/>
</g>
<defs>
<clipPath id="clip0_66_7571">
<rect width="24" height="24" fill="white"/>
</clipPath>
</defs>
</svg>
